<mxfile host="65bd71144e">
    <diagram name="Page-1" id="-bnTTtl445jZ_6ajG-8d">
        <mxGraphModel dx="1667" dy="784" grid="1" gridSize="10" guides="1" tooltips="1" connect="1" arrows="1" fold="1" page="1" pageScale="1" pageWidth="850" pageHeight="1100" math="0" shadow="0">
            <root>
                <mxCell id="0"/>
                <mxCell id="1" parent="0"/>
                <mxCell id="VoS2cG7jSg4z9FvmRYZC-49" value="&lt;br&gt;" style="html=1;dropTarget=0;whiteSpace=wrap;container=0;" parent="1" vertex="1">
                    <mxGeometry x="337" y="467" width="723" height="220" as="geometry"/>
                </mxCell>
                <mxCell id="VoS2cG7jSg4z9FvmRYZC-22" value="&lt;br&gt;" style="html=1;dropTarget=0;whiteSpace=wrap;" parent="1" vertex="1">
                    <mxGeometry x="-290" y="81" width="530" height="199" as="geometry"/>
                </mxCell>
                <mxCell id="VoS2cG7jSg4z9FvmRYZC-23" value="" style="shape=module;jettyWidth=8;jettyHeight=4;movable=0;resizable=0;rotatable=0;deletable=0;editable=0;locked=1;connectable=0;" parent="VoS2cG7jSg4z9FvmRYZC-22" vertex="1">
                    <mxGeometry x="1" width="11" height="20" relative="1" as="geometry">
                        <mxPoint x="-18" y="7" as="offset"/>
                    </mxGeometry>
                </mxCell>
                <mxCell id="VoS2cG7jSg4z9FvmRYZC-37" value="" style="ellipse;whiteSpace=wrap;html=1;aspect=fixed;movable=1;resizable=1;rotatable=1;deletable=1;editable=1;locked=0;connectable=1;" parent="1" vertex="1">
                    <mxGeometry x="-341" y="175.81" width="11" height="11" as="geometry"/>
                </mxCell>
                <mxCell id="VoS2cG7jSg4z9FvmRYZC-38" value="" style="whiteSpace=wrap;html=1;aspect=fixed;movable=1;resizable=1;rotatable=1;deletable=1;editable=1;locked=0;connectable=1;" parent="1" vertex="1">
                    <mxGeometry x="-301" y="171" width="20.61" height="20.61" as="geometry"/>
                </mxCell>
                <mxCell id="VoS2cG7jSg4z9FvmRYZC-41" value="" style="endArrow=none;html=1;rounded=0;entryX=0;entryY=0.5;entryDx=0;entryDy=0;movable=1;resizable=1;rotatable=1;deletable=1;editable=1;locked=0;connectable=1;" parent="1" target="VoS2cG7jSg4z9FvmRYZC-38" edge="1">
                    <mxGeometry width="50" height="50" relative="1" as="geometry">
                        <mxPoint x="-330" y="181" as="sourcePoint"/>
                        <mxPoint x="-220" y="211" as="targetPoint"/>
                    </mxGeometry>
                </mxCell>
                <mxCell id="VoS2cG7jSg4z9FvmRYZC-44" value="&lt;font style=&quot;font-size: 10px;&quot;&gt;Login&lt;/font&gt;" style="text;html=1;strokeColor=none;fillColor=none;align=center;verticalAlign=middle;whiteSpace=wrap;rounded=0;movable=1;resizable=1;rotatable=1;deletable=1;editable=1;locked=0;connectable=1;" parent="1" vertex="1">
                    <mxGeometry x="-341" y="191" width="40" height="20" as="geometry"/>
                </mxCell>
                <mxCell id="VoS2cG7jSg4z9FvmRYZC-45" value="" style="rounded=0;orthogonalLoop=1;jettySize=auto;html=1;endArrow=none;endFill=0;sketch=0;sourcePerimeterSpacing=0;targetPerimeterSpacing=0;exitX=1;exitY=0.5;exitDx=0;exitDy=0;movable=1;resizable=1;rotatable=1;deletable=1;editable=1;locked=0;connectable=1;" parent="1" source="VoS2cG7jSg4z9FvmRYZC-38" target="VoS2cG7jSg4z9FvmRYZC-47" edge="1">
                    <mxGeometry relative="1" as="geometry">
                        <mxPoint x="-268" y="182" as="sourcePoint"/>
                    </mxGeometry>
                </mxCell>
                <mxCell id="VoS2cG7jSg4z9FvmRYZC-34" value="&lt;b style=&quot;border-color: var(--border-color);&quot;&gt;&lt;font style=&quot;font-size: 10px;&quot;&gt;User Interface&lt;/font&gt;&lt;/b&gt;" style="text;html=1;strokeColor=none;fillColor=none;align=center;verticalAlign=middle;whiteSpace=wrap;rounded=0;movable=1;resizable=1;rotatable=1;deletable=1;editable=1;locked=0;connectable=1;" parent="1" vertex="1">
                    <mxGeometry x="-65.62" y="91.53" width="81.24" height="19.47" as="geometry"/>
                </mxCell>
                <mxCell id="VoS2cG7jSg4z9FvmRYZC-24" value="&lt;font style=&quot;font-size: 8px;&quot;&gt;«Component»&lt;br&gt;&lt;b style=&quot;&quot;&gt;Authentication and &lt;br&gt;Authorization&amp;nbsp;&lt;/b&gt;&lt;/font&gt;" style="html=1;dropTarget=0;whiteSpace=wrap;movable=1;resizable=1;rotatable=1;deletable=1;editable=1;locked=0;connectable=1;" parent="1" vertex="1">
                    <mxGeometry x="-200.62" y="140" width="141" height="80" as="geometry"/>
                </mxCell>
                <mxCell id="VoS2cG7jSg4z9FvmRYZC-25" value="" style="shape=module;jettyWidth=8;jettyHeight=4;movable=1;resizable=1;rotatable=1;deletable=1;editable=1;locked=0;connectable=1;" parent="VoS2cG7jSg4z9FvmRYZC-24" vertex="1">
                    <mxGeometry x="1" width="13" height="20" relative="1" as="geometry">
                        <mxPoint x="-17" y="3" as="offset"/>
                    </mxGeometry>
                </mxCell>
                <mxCell id="VoS2cG7jSg4z9FvmRYZC-39" value="" style="whiteSpace=wrap;html=1;aspect=fixed;movable=1;resizable=1;rotatable=1;deletable=1;editable=1;locked=0;connectable=1;" parent="1" vertex="1">
                    <mxGeometry x="-210" y="171.69" width="20.61" height="20.61" as="geometry"/>
                </mxCell>
                <mxCell id="VoS2cG7jSg4z9FvmRYZC-46" value="" style="rounded=0;orthogonalLoop=1;jettySize=auto;html=1;endArrow=halfCircle;endFill=0;entryX=0.5;entryY=0.5;endSize=6;strokeWidth=1;sketch=0;exitX=0;exitY=0.5;exitDx=0;exitDy=0;movable=1;resizable=1;rotatable=1;deletable=1;editable=1;locked=0;connectable=1;" parent="1" source="VoS2cG7jSg4z9FvmRYZC-39" target="VoS2cG7jSg4z9FvmRYZC-47" edge="1">
                    <mxGeometry relative="1" as="geometry">
                        <mxPoint x="122" y="141" as="sourcePoint"/>
                    </mxGeometry>
                </mxCell>
                <mxCell id="VoS2cG7jSg4z9FvmRYZC-47" value="" style="ellipse;whiteSpace=wrap;html=1;align=center;aspect=fixed;resizable=1;points=[];outlineConnect=0;sketch=0;movable=1;rotatable=1;deletable=1;editable=1;locked=0;connectable=1;" parent="1" vertex="1">
                    <mxGeometry x="-253" y="177" width="10" height="10" as="geometry"/>
                </mxCell>
                <mxCell id="VoS2cG7jSg4z9FvmRYZC-48" value="&lt;font style=&quot;font-size: 10px;&quot;&gt;+ Login Info&lt;/font&gt;" style="text;html=1;strokeColor=none;fillColor=none;align=center;verticalAlign=middle;whiteSpace=wrap;rounded=0;movable=1;resizable=1;rotatable=1;deletable=1;editable=1;locked=0;connectable=1;" parent="1" vertex="1">
                    <mxGeometry x="-279" y="151.69" width="62" height="20" as="geometry"/>
                </mxCell>
                <mxCell id="VoS2cG7jSg4z9FvmRYZC-58" value="" style="group;movable=1;resizable=1;rotatable=1;deletable=1;editable=1;locked=0;connectable=1;" parent="1" vertex="1" connectable="0">
                    <mxGeometry x="-310" y="470" width="740" height="360" as="geometry"/>
                </mxCell>
                <mxCell id="VoS2cG7jSg4z9FvmRYZC-52" value="&lt;br&gt;" style="html=1;dropTarget=0;whiteSpace=wrap;movable=1;resizable=1;rotatable=1;deletable=1;editable=1;locked=0;connectable=1;" parent="VoS2cG7jSg4z9FvmRYZC-58" vertex="1">
                    <mxGeometry x="-189" y="-70" width="749.38" height="330" as="geometry"/>
                </mxCell>
                <mxCell id="VoS2cG7jSg4z9FvmRYZC-53" value="" style="shape=module;jettyWidth=8;jettyHeight=4;movable=1;resizable=1;rotatable=1;deletable=1;editable=1;locked=0;connectable=1;" parent="VoS2cG7jSg4z9FvmRYZC-52" vertex="1">
                    <mxGeometry x="1" width="11" height="20" relative="1" as="geometry">
                        <mxPoint x="-18" y="7" as="offset"/>
                    </mxGeometry>
                </mxCell>
                <mxCell id="VoS2cG7jSg4z9FvmRYZC-66" value="&lt;font style=&quot;font-size: 8px;&quot;&gt;«Component»&lt;br&gt;&lt;b&gt;View Feedback&lt;/b&gt;&lt;br&gt;&lt;/font&gt;" style="html=1;dropTarget=0;whiteSpace=wrap;movable=1;resizable=1;rotatable=1;deletable=1;editable=1;locked=0;connectable=1;" parent="VoS2cG7jSg4z9FvmRYZC-58" vertex="1">
                    <mxGeometry x="1" width="141" height="64" as="geometry"/>
                </mxCell>
                <mxCell id="VoS2cG7jSg4z9FvmRYZC-67" value="" style="shape=module;jettyWidth=8;jettyHeight=4;movable=1;resizable=1;rotatable=1;deletable=1;editable=1;locked=0;connectable=1;" parent="VoS2cG7jSg4z9FvmRYZC-66" vertex="1">
                    <mxGeometry x="1" width="13" height="20" relative="1" as="geometry">
                        <mxPoint x="-17" y="3" as="offset"/>
                    </mxGeometry>
                </mxCell>
                <mxCell id="VoS2cG7jSg4z9FvmRYZC-78" value="&lt;font style=&quot;font-size: 8px;&quot;&gt;«Component»&lt;br&gt;&lt;b&gt;Feedback Analysis and Report&amp;nbsp;&lt;/b&gt;&lt;br&gt;&lt;/font&gt;" style="html=1;dropTarget=0;whiteSpace=wrap;movable=1;resizable=1;rotatable=1;deletable=1;editable=1;locked=0;connectable=1;" parent="VoS2cG7jSg4z9FvmRYZC-58" vertex="1">
                    <mxGeometry x="180.86" width="141" height="64" as="geometry"/>
                </mxCell>
                <mxCell id="VoS2cG7jSg4z9FvmRYZC-79" value="" style="shape=module;jettyWidth=8;jettyHeight=4;movable=1;resizable=1;rotatable=1;deletable=1;editable=1;locked=0;connectable=1;" parent="VoS2cG7jSg4z9FvmRYZC-78" vertex="1">
                    <mxGeometry x="1" width="13" height="20" relative="1" as="geometry">
                        <mxPoint x="-17" y="3" as="offset"/>
                    </mxGeometry>
                </mxCell>
                <mxCell id="VoS2cG7jSg4z9FvmRYZC-92" value="&lt;font style=&quot;font-size: 8px;&quot;&gt;«Component»&lt;br&gt;&lt;b&gt;Reply Feedback&lt;/b&gt;&lt;br&gt;&lt;/font&gt;" style="html=1;dropTarget=0;whiteSpace=wrap;movable=1;resizable=1;rotatable=1;deletable=1;editable=1;locked=0;connectable=1;" parent="VoS2cG7jSg4z9FvmRYZC-58" vertex="1">
                    <mxGeometry x="361" y="49" width="141" height="77" as="geometry"/>
                </mxCell>
                <mxCell id="VoS2cG7jSg4z9FvmRYZC-93" value="" style="shape=module;jettyWidth=8;jettyHeight=4;movable=1;resizable=1;rotatable=1;deletable=1;editable=1;locked=0;connectable=1;" parent="VoS2cG7jSg4z9FvmRYZC-92" vertex="1">
                    <mxGeometry x="1" width="13" height="20" relative="1" as="geometry">
                        <mxPoint x="-17" y="3" as="offset"/>
                    </mxGeometry>
                </mxCell>
                <mxCell id="VoS2cG7jSg4z9FvmRYZC-173" value="" style="whiteSpace=wrap;html=1;aspect=fixed;movable=1;resizable=1;rotatable=1;deletable=1;editable=1;locked=0;connectable=1;container=0;fontStyle=1" parent="VoS2cG7jSg4z9FvmRYZC-58" vertex="1">
                    <mxGeometry x="209.6900000000001" y="250" width="20.61" height="20.61" as="geometry"/>
                </mxCell>
                <mxCell id="VoS2cG7jSg4z9FvmRYZC-190" value="&lt;font style=&quot;font-size: 8px;&quot;&gt;«Component»&lt;br&gt;&lt;b&gt;Download Excel Feedback&lt;/b&gt;&lt;br&gt;&lt;/font&gt;" style="html=1;dropTarget=0;whiteSpace=wrap;movable=1;resizable=1;rotatable=1;deletable=1;editable=1;locked=0;connectable=1;" parent="VoS2cG7jSg4z9FvmRYZC-58" vertex="1">
                    <mxGeometry x="89.19" y="130" width="141" height="64" as="geometry"/>
                </mxCell>
                <mxCell id="VoS2cG7jSg4z9FvmRYZC-191" value="" style="shape=module;jettyWidth=8;jettyHeight=4;movable=1;resizable=1;rotatable=1;deletable=1;editable=1;locked=0;connectable=1;" parent="VoS2cG7jSg4z9FvmRYZC-190" vertex="1">
                    <mxGeometry x="1" width="13" height="20" relative="1" as="geometry">
                        <mxPoint x="-17" y="3" as="offset"/>
                    </mxGeometry>
                </mxCell>
                <mxCell id="VoS2cG7jSg4z9FvmRYZC-195" value="" style="group;rotation=0;" parent="VoS2cG7jSg4z9FvmRYZC-58" vertex="1" connectable="0">
                    <mxGeometry x="651" y="341" width="40" height="10" as="geometry"/>
                </mxCell>
                <mxCell id="VoS2cG7jSg4z9FvmRYZC-194" value="" style="ellipse;whiteSpace=wrap;html=1;align=center;aspect=fixed;resizable=0;points=[];outlineConnect=0;sketch=0;rotation=-180;" parent="VoS2cG7jSg4z9FvmRYZC-195" vertex="1">
                    <mxGeometry x="20" width="10" height="10" as="geometry"/>
                </mxCell>
                <mxCell id="VoS2cG7jSg4z9FvmRYZC-202" value="" style="ellipse;whiteSpace=wrap;html=1;align=center;aspect=fixed;resizable=0;points=[];outlineConnect=0;sketch=0;" parent="VoS2cG7jSg4z9FvmRYZC-58" vertex="1">
                    <mxGeometry x="154.69" y="220" width="10" height="10" as="geometry"/>
                </mxCell>
                <mxCell id="VoS2cG7jSg4z9FvmRYZC-200" value="" style="rounded=0;orthogonalLoop=1;jettySize=auto;html=1;endArrow=none;endFill=0;sketch=0;sourcePerimeterSpacing=0;targetPerimeterSpacing=0;" parent="VoS2cG7jSg4z9FvmRYZC-58" target="VoS2cG7jSg4z9FvmRYZC-202" edge="1">
                    <mxGeometry relative="1" as="geometry">
                        <mxPoint x="286" y="225" as="sourcePoint"/>
                    </mxGeometry>
                </mxCell>
                <mxCell id="VoS2cG7jSg4z9FvmRYZC-203" value="" style="endArrow=none;html=1;rounded=0;exitX=0.5;exitY=0;exitDx=0;exitDy=0;" parent="VoS2cG7jSg4z9FvmRYZC-58" source="VoS2cG7jSg4z9FvmRYZC-173" edge="1">
                    <mxGeometry width="50" height="50" relative="1" as="geometry">
                        <mxPoint x="219.99500000000012" y="245" as="sourcePoint"/>
                        <mxPoint x="220" y="225" as="targetPoint"/>
                    </mxGeometry>
                </mxCell>
                <mxCell id="VoS2cG7jSg4z9FvmRYZC-214" value="" style="endArrow=none;html=1;rounded=0;entryX=0.5;entryY=1;entryDx=0;entryDy=0;" parent="VoS2cG7jSg4z9FvmRYZC-58" source="VoS2cG7jSg4z9FvmRYZC-202" target="VoS2cG7jSg4z9FvmRYZC-190" edge="1">
                    <mxGeometry width="50" height="50" relative="1" as="geometry">
                        <mxPoint x="216" y="190" as="sourcePoint"/>
                        <mxPoint x="266" y="140" as="targetPoint"/>
                    </mxGeometry>
                </mxCell>
                <mxCell id="VoS2cG7jSg4z9FvmRYZC-215" value="" style="ellipse;whiteSpace=wrap;html=1;align=center;aspect=fixed;resizable=0;points=[];outlineConnect=0;sketch=0;" parent="VoS2cG7jSg4z9FvmRYZC-58" vertex="1">
                    <mxGeometry x="426.5" y="220" width="10" height="10" as="geometry"/>
                </mxCell>
                <mxCell id="VoS2cG7jSg4z9FvmRYZC-216" value="" style="rounded=0;orthogonalLoop=1;jettySize=auto;html=1;endArrow=none;endFill=0;sketch=0;sourcePerimeterSpacing=0;targetPerimeterSpacing=0;" parent="VoS2cG7jSg4z9FvmRYZC-58" source="VoS2cG7jSg4z9FvmRYZC-215" edge="1">
                    <mxGeometry relative="1" as="geometry">
                        <mxPoint x="337" y="224.85999999999996" as="sourcePoint"/>
                        <mxPoint x="201" y="224.85999999999996" as="targetPoint"/>
                    </mxGeometry>
                </mxCell>
                <mxCell id="VoS2cG7jSg4z9FvmRYZC-217" value="" style="endArrow=none;html=1;rounded=0;entryX=0.5;entryY=1;entryDx=0;entryDy=0;" parent="VoS2cG7jSg4z9FvmRYZC-58" source="VoS2cG7jSg4z9FvmRYZC-215" target="VoS2cG7jSg4z9FvmRYZC-92" edge="1">
                    <mxGeometry width="50" height="50" relative="1" as="geometry">
                        <mxPoint x="431.25" y="206" as="sourcePoint"/>
                        <mxPoint x="431.25" y="180" as="targetPoint"/>
                    </mxGeometry>
                </mxCell>
                <mxCell id="VoS2cG7jSg4z9FvmRYZC-218" value="" style="whiteSpace=wrap;html=1;aspect=fixed;movable=1;resizable=1;rotatable=1;deletable=1;editable=1;locked=0;connectable=1;container=0;fontStyle=1" parent="VoS2cG7jSg4z9FvmRYZC-58" vertex="1">
                    <mxGeometry x="149.3800000000001" y="184" width="20.61" height="20.61" as="geometry"/>
                </mxCell>
                <mxCell id="VoS2cG7jSg4z9FvmRYZC-219" value="" style="whiteSpace=wrap;html=1;aspect=fixed;movable=1;resizable=1;rotatable=1;deletable=1;editable=1;locked=0;connectable=1;container=0;fontStyle=1" parent="VoS2cG7jSg4z9FvmRYZC-58" vertex="1">
                    <mxGeometry x="421.19000000000005" y="115" width="20.61" height="20.61" as="geometry"/>
                </mxCell>
                <mxCell id="VoS2cG7jSg4z9FvmRYZC-249" value="" style="whiteSpace=wrap;html=1;aspect=fixed;movable=1;resizable=1;rotatable=1;deletable=1;editable=1;locked=0;connectable=1;container=0;fontStyle=1" parent="VoS2cG7jSg4z9FvmRYZC-58" vertex="1">
                    <mxGeometry x="61.19000000000011" y="-10" width="20.61" height="20.61" as="geometry"/>
                </mxCell>
                <mxCell id="VoS2cG7jSg4z9FvmRYZC-250" value="" style="whiteSpace=wrap;html=1;aspect=fixed;movable=1;resizable=1;rotatable=1;deletable=1;editable=1;locked=0;connectable=1;container=0;fontStyle=1" parent="VoS2cG7jSg4z9FvmRYZC-58" vertex="1">
                    <mxGeometry x="61.19000000000011" y="53" width="20.61" height="20.61" as="geometry"/>
                </mxCell>
                <mxCell id="VoS2cG7jSg4z9FvmRYZC-251" value="" style="whiteSpace=wrap;html=1;aspect=fixed;movable=1;resizable=1;rotatable=1;deletable=1;editable=1;locked=0;connectable=1;container=0;fontStyle=1" parent="VoS2cG7jSg4z9FvmRYZC-58" vertex="1">
                    <mxGeometry x="241.06000000000012" y="-10" width="20.61" height="20.61" as="geometry"/>
                </mxCell>
                <mxCell id="VoS2cG7jSg4z9FvmRYZC-252" value="" style="whiteSpace=wrap;html=1;aspect=fixed;movable=1;resizable=1;rotatable=1;deletable=1;editable=1;locked=0;connectable=1;container=0;fontStyle=1" parent="VoS2cG7jSg4z9FvmRYZC-58" vertex="1">
                    <mxGeometry x="241.05000000000013" y="53" width="20.61" height="20.61" as="geometry"/>
                </mxCell>
                <mxCell id="VoS2cG7jSg4z9FvmRYZC-253" value="" style="whiteSpace=wrap;html=1;aspect=fixed;movable=1;resizable=1;rotatable=1;deletable=1;editable=1;locked=0;connectable=1;container=0;fontStyle=1" parent="VoS2cG7jSg4z9FvmRYZC-58" vertex="1">
                    <mxGeometry x="421.19000000000005" y="42" width="20.61" height="20.61" as="geometry"/>
                </mxCell>
                <mxCell id="VoS2cG7jSg4z9FvmRYZC-254" value="" style="whiteSpace=wrap;html=1;aspect=fixed;movable=1;resizable=1;rotatable=1;deletable=1;editable=1;locked=0;connectable=1;container=0;fontStyle=1" parent="VoS2cG7jSg4z9FvmRYZC-58" vertex="1">
                    <mxGeometry x="421.19000000000005" y="-80" width="20.61" height="20.61" as="geometry"/>
                </mxCell>
                <mxCell id="VoS2cG7jSg4z9FvmRYZC-255" value="" style="whiteSpace=wrap;html=1;aspect=fixed;movable=1;resizable=1;rotatable=1;deletable=1;editable=1;locked=0;connectable=1;container=0;fontStyle=1" parent="VoS2cG7jSg4z9FvmRYZC-58" vertex="1">
                    <mxGeometry x="240.05000000000007" y="-80" width="20.61" height="20.61" as="geometry"/>
                </mxCell>
                <mxCell id="VoS2cG7jSg4z9FvmRYZC-257" value="" style="rounded=0;orthogonalLoop=1;jettySize=auto;html=1;endArrow=none;endFill=0;sketch=0;sourcePerimeterSpacing=0;targetPerimeterSpacing=0;exitX=1;exitY=0;exitDx=0;exitDy=0;" parent="VoS2cG7jSg4z9FvmRYZC-58" source="VoS2cG7jSg4z9FvmRYZC-295" target="VoS2cG7jSg4z9FvmRYZC-259" edge="1">
                    <mxGeometry relative="1" as="geometry">
                        <mxPoint x="171" y="95" as="sourcePoint"/>
                    </mxGeometry>
                </mxCell>
                <mxCell id="VoS2cG7jSg4z9FvmRYZC-258" value="" style="rounded=0;orthogonalLoop=1;jettySize=auto;html=1;endArrow=halfCircle;endFill=0;entryX=0.5;entryY=0.5;endSize=6;strokeWidth=1;sketch=0;exitX=0;exitY=1;exitDx=0;exitDy=0;" parent="VoS2cG7jSg4z9FvmRYZC-58" source="VoS2cG7jSg4z9FvmRYZC-252" target="VoS2cG7jSg4z9FvmRYZC-259" edge="1">
                    <mxGeometry relative="1" as="geometry">
                        <mxPoint x="211" y="95" as="sourcePoint"/>
                    </mxGeometry>
                </mxCell>
                <mxCell id="VoS2cG7jSg4z9FvmRYZC-259" value="" style="ellipse;whiteSpace=wrap;html=1;align=center;aspect=fixed;resizable=0;points=[];outlineConnect=0;sketch=0;" parent="VoS2cG7jSg4z9FvmRYZC-58" vertex="1">
                    <mxGeometry x="200.69" y="92.07" width="10" height="10" as="geometry"/>
                </mxCell>
                <mxCell id="VoS2cG7jSg4z9FvmRYZC-261" value="" style="rounded=0;orthogonalLoop=1;jettySize=auto;html=1;endArrow=halfCircle;endFill=0;entryX=0.5;entryY=0.5;endSize=6;strokeWidth=1;sketch=0;exitX=1;exitY=1;exitDx=0;exitDy=0;" parent="VoS2cG7jSg4z9FvmRYZC-58" source="VoS2cG7jSg4z9FvmRYZC-250" target="VoS2cG7jSg4z9FvmRYZC-262" edge="1">
                    <mxGeometry relative="1" as="geometry">
                        <mxPoint x="232.11893218813452" y="107.92893218813447" as="sourcePoint"/>
                    </mxGeometry>
                </mxCell>
                <mxCell id="VoS2cG7jSg4z9FvmRYZC-260" value="" style="rounded=0;orthogonalLoop=1;jettySize=auto;html=1;endArrow=none;endFill=0;sketch=0;sourcePerimeterSpacing=0;targetPerimeterSpacing=0;exitX=0;exitY=0;exitDx=0;exitDy=0;" parent="VoS2cG7jSg4z9FvmRYZC-58" source="VoS2cG7jSg4z9FvmRYZC-295" target="VoS2cG7jSg4z9FvmRYZC-262" edge="1">
                    <mxGeometry relative="1" as="geometry">
                        <mxPoint x="271.1189321881345" y="72.92893218813447" as="sourcePoint"/>
                    </mxGeometry>
                </mxCell>
                <mxCell id="VoS2cG7jSg4z9FvmRYZC-276" value="&lt;font style=&quot;font-size: 10px;&quot;&gt;Feedback records&lt;/font&gt;" style="text;html=1;strokeColor=none;fillColor=none;align=center;verticalAlign=middle;whiteSpace=wrap;rounded=0;movable=1;resizable=1;rotatable=1;deletable=1;editable=1;locked=0;connectable=1;" parent="VoS2cG7jSg4z9FvmRYZC-58" vertex="1">
                    <mxGeometry x="621.4599999999999" y="316" width="99.09" height="15" as="geometry"/>
                </mxCell>
                <mxCell id="VoS2cG7jSg4z9FvmRYZC-287" value="" style="ellipse;whiteSpace=wrap;html=1;align=center;aspect=fixed;resizable=0;points=[];outlineConnect=0;sketch=0;" parent="VoS2cG7jSg4z9FvmRYZC-58" vertex="1">
                    <mxGeometry x="66.47000000000003" y="-38" width="10" height="10" as="geometry"/>
                </mxCell>
                <mxCell id="VoS2cG7jSg4z9FvmRYZC-288" value="" style="rounded=0;orthogonalLoop=1;jettySize=auto;html=1;endArrow=none;endFill=0;sketch=0;sourcePerimeterSpacing=0;targetPerimeterSpacing=0;entryX=0.5;entryY=0;entryDx=0;entryDy=0;" parent="VoS2cG7jSg4z9FvmRYZC-58" source="VoS2cG7jSg4z9FvmRYZC-287" target="VoS2cG7jSg4z9FvmRYZC-249" edge="1">
                    <mxGeometry relative="1" as="geometry">
                        <mxPoint x="-50.620000000000005" y="-28" as="sourcePoint"/>
                        <mxPoint x="-50.620000000000005" y="-6" as="targetPoint"/>
                    </mxGeometry>
                </mxCell>
                <mxCell id="VoS2cG7jSg4z9FvmRYZC-292" value="" style="ellipse;whiteSpace=wrap;html=1;align=center;aspect=fixed;resizable=0;points=[];outlineConnect=0;sketch=0;" parent="VoS2cG7jSg4z9FvmRYZC-58" vertex="1">
                    <mxGeometry x="426.49" y="-37.389999999999986" width="10" height="10" as="geometry"/>
                </mxCell>
                <mxCell id="VoS2cG7jSg4z9FvmRYZC-293" value="" style="rounded=0;orthogonalLoop=1;jettySize=auto;html=1;endArrow=none;endFill=0;sketch=0;sourcePerimeterSpacing=0;targetPerimeterSpacing=0;entryX=0.5;entryY=0;entryDx=0;entryDy=0;" parent="VoS2cG7jSg4z9FvmRYZC-58" source="VoS2cG7jSg4z9FvmRYZC-292" target="VoS2cG7jSg4z9FvmRYZC-253" edge="1">
                    <mxGeometry relative="1" as="geometry">
                        <mxPoint x="429.4" y="-27.389999999999986" as="sourcePoint"/>
                        <mxPoint x="431.02" y="-9.389999999999986" as="targetPoint"/>
                    </mxGeometry>
                </mxCell>
                <mxCell id="VoS2cG7jSg4z9FvmRYZC-294" value="" style="rounded=0;orthogonalLoop=1;jettySize=auto;html=1;endArrow=none;endFill=0;sketch=0;sourcePerimeterSpacing=0;targetPerimeterSpacing=0;exitX=0.5;exitY=1;exitDx=0;exitDy=0;" parent="VoS2cG7jSg4z9FvmRYZC-58" target="VoS2cG7jSg4z9FvmRYZC-292" edge="1">
                    <mxGeometry relative="1" as="geometry">
                        <mxPoint x="432.02" y="-59.389999999999986" as="sourcePoint"/>
                    </mxGeometry>
                </mxCell>
                <mxCell id="VoS2cG7jSg4z9FvmRYZC-264" value="" style="group;rotation=-225;" parent="VoS2cG7jSg4z9FvmRYZC-58" vertex="1" connectable="0">
                    <mxGeometry x="100.99893218813452" y="87.92893218813452" width="14.142135623730951" height="14.142135623730951" as="geometry"/>
                </mxCell>
                <mxCell id="VoS2cG7jSg4z9FvmRYZC-263" value="" style="group;rotation=-90;" parent="VoS2cG7jSg4z9FvmRYZC-264" vertex="1" connectable="0">
                    <mxGeometry x="2" y="2" width="10" height="10" as="geometry"/>
                </mxCell>
                <mxCell id="VoS2cG7jSg4z9FvmRYZC-262" value="" style="ellipse;whiteSpace=wrap;html=1;align=center;aspect=fixed;resizable=0;points=[];outlineConnect=0;sketch=0;rotation=-90;" parent="VoS2cG7jSg4z9FvmRYZC-263" vertex="1">
                    <mxGeometry width="10" height="10" as="geometry"/>
                </mxCell>
                <mxCell id="VoS2cG7jSg4z9FvmRYZC-295" value="" style="whiteSpace=wrap;html=1;aspect=fixed;movable=1;resizable=1;rotatable=1;deletable=1;editable=1;locked=0;connectable=1;container=0;fontStyle=1" parent="VoS2cG7jSg4z9FvmRYZC-58" vertex="1">
                    <mxGeometry x="149.3800000000001" y="120" width="20.61" height="20.61" as="geometry"/>
                </mxCell>
                <mxCell id="VoS2cG7jSg4z9FvmRYZC-296" value="&lt;font style=&quot;font-size: 8px;&quot;&gt;«Component»&lt;br&gt;&lt;b&gt;Profile&amp;nbsp;&lt;/b&gt;&lt;br&gt;&lt;/font&gt;" style="html=1;dropTarget=0;whiteSpace=wrap;movable=1;resizable=1;rotatable=1;deletable=1;editable=1;locked=0;connectable=1;container=0;" parent="VoS2cG7jSg4z9FvmRYZC-58" vertex="1">
                    <mxGeometry x="-169" width="141" height="64" as="geometry"/>
                </mxCell>
                <mxCell id="VoS2cG7jSg4z9FvmRYZC-297" value="" style="shape=module;jettyWidth=8;jettyHeight=4;movable=1;resizable=1;rotatable=1;deletable=1;editable=1;locked=0;connectable=1;" parent="VoS2cG7jSg4z9FvmRYZC-58" vertex="1">
                    <mxGeometry x="-45" y="3" width="13" height="20" as="geometry"/>
                </mxCell>
                <mxCell id="VoS2cG7jSg4z9FvmRYZC-298" value="" style="whiteSpace=wrap;html=1;aspect=fixed;movable=1;resizable=1;rotatable=1;deletable=1;editable=1;locked=0;connectable=1;container=0;fontStyle=1" parent="VoS2cG7jSg4z9FvmRYZC-58" vertex="1">
                    <mxGeometry x="-108.80999999999995" y="-10" width="20.61" height="20.61" as="geometry"/>
                </mxCell>
                <mxCell id="VoS2cG7jSg4z9FvmRYZC-299" value="" style="whiteSpace=wrap;html=1;aspect=fixed;movable=1;resizable=1;rotatable=1;deletable=1;editable=1;locked=0;connectable=1;container=0;fontStyle=1" parent="VoS2cG7jSg4z9FvmRYZC-58" vertex="1">
                    <mxGeometry x="-108.80999999999995" y="-80" width="20.61" height="20.61" as="geometry"/>
                </mxCell>
                <mxCell id="VoS2cG7jSg4z9FvmRYZC-300" value="" style="whiteSpace=wrap;html=1;aspect=fixed;movable=1;resizable=1;rotatable=1;deletable=1;editable=1;locked=0;connectable=1;container=0;fontStyle=1" parent="VoS2cG7jSg4z9FvmRYZC-58" vertex="1">
                    <mxGeometry x="-108.80999999999995" y="53" width="20.61" height="20.61" as="geometry"/>
                </mxCell>
                <mxCell id="VoS2cG7jSg4z9FvmRYZC-301" value="" style="whiteSpace=wrap;html=1;aspect=fixed;movable=1;resizable=1;rotatable=1;deletable=1;editable=1;locked=0;connectable=1;container=0;fontStyle=1" parent="VoS2cG7jSg4z9FvmRYZC-58" vertex="1">
                    <mxGeometry x="-108.80999999999995" y="250" width="20.61" height="20.61" as="geometry"/>
                </mxCell>
                <mxCell id="VoS2cG7jSg4z9FvmRYZC-308" value="" style="endArrow=none;html=1;rounded=0;entryX=0.5;entryY=1;entryDx=0;entryDy=0;" parent="VoS2cG7jSg4z9FvmRYZC-58" target="VoS2cG7jSg4z9FvmRYZC-301" edge="1">
                    <mxGeometry width="50" height="50" relative="1" as="geometry">
                        <mxPoint x="-100" y="370" as="sourcePoint"/>
                        <mxPoint x="50.20999999999998" y="295" as="targetPoint"/>
                    </mxGeometry>
                </mxCell>
                <mxCell id="VoS2cG7jSg4z9FvmRYZC-309" value="" style="endArrow=none;html=1;rounded=0;entryX=0.5;entryY=1;entryDx=0;entryDy=0;exitX=0.5;exitY=0;exitDx=0;exitDy=0;" parent="VoS2cG7jSg4z9FvmRYZC-58" source="VoS2cG7jSg4z9FvmRYZC-301" target="VoS2cG7jSg4z9FvmRYZC-300" edge="1">
                    <mxGeometry width="50" height="50" relative="1" as="geometry">
                        <mxPoint x="-98.58000000000004" y="194" as="sourcePoint"/>
                        <mxPoint x="-98.79000000000002" y="95" as="targetPoint"/>
                    </mxGeometry>
                </mxCell>
                <mxCell id="VoS2cG7jSg4z9FvmRYZC-310" value="" style="ellipse;whiteSpace=wrap;html=1;align=center;aspect=fixed;resizable=0;points=[];outlineConnect=0;sketch=0;" parent="VoS2cG7jSg4z9FvmRYZC-58" vertex="1">
                    <mxGeometry x="-103.5" y="150" width="10" height="10" as="geometry"/>
                </mxCell>
                <mxCell id="VoS2cG7jSg4z9FvmRYZC-312" value="" style="ellipse;whiteSpace=wrap;html=1;align=center;aspect=fixed;resizable=0;points=[];outlineConnect=0;sketch=0;" parent="VoS2cG7jSg4z9FvmRYZC-58" vertex="1">
                    <mxGeometry x="-103.5" y="-38" width="10" height="10" as="geometry"/>
                </mxCell>
                <mxCell id="VoS2cG7jSg4z9FvmRYZC-313" value="" style="rounded=0;orthogonalLoop=1;jettySize=auto;html=1;endArrow=none;endFill=0;sketch=0;sourcePerimeterSpacing=0;targetPerimeterSpacing=0;entryX=0.5;entryY=0;entryDx=0;entryDy=0;" parent="VoS2cG7jSg4z9FvmRYZC-58" source="VoS2cG7jSg4z9FvmRYZC-312" edge="1">
                    <mxGeometry relative="1" as="geometry">
                        <mxPoint x="-220.59000000000003" y="-28" as="sourcePoint"/>
                        <mxPoint x="-98.97000000000003" y="-10" as="targetPoint"/>
                    </mxGeometry>
                </mxCell>
                <mxCell id="VoS2cG7jSg4z9FvmRYZC-314" value="" style="rounded=0;orthogonalLoop=1;jettySize=auto;html=1;endArrow=none;endFill=0;sketch=0;sourcePerimeterSpacing=0;targetPerimeterSpacing=0;exitX=0.5;exitY=1;exitDx=0;exitDy=0;" parent="VoS2cG7jSg4z9FvmRYZC-58" target="VoS2cG7jSg4z9FvmRYZC-312" edge="1">
                    <mxGeometry relative="1" as="geometry">
                        <mxPoint x="-97.97000000000003" y="-60" as="sourcePoint"/>
                    </mxGeometry>
                </mxCell>
                <mxCell id="VoS2cG7jSg4z9FvmRYZC-331" value="" style="whiteSpace=wrap;html=1;aspect=fixed;movable=1;resizable=1;rotatable=1;deletable=1;editable=1;locked=0;connectable=1;container=0;fontStyle=1" parent="VoS2cG7jSg4z9FvmRYZC-58" vertex="1">
                    <mxGeometry x="491" y="77.19999999999999" width="20.61" height="20.61" as="geometry"/>
                </mxCell>
                <mxCell id="VoS2cG7jSg4z9FvmRYZC-339" value="&lt;font style=&quot;font-size: 10px;&quot;&gt;Feedback info&lt;/font&gt;" style="text;html=1;strokeColor=none;fillColor=none;align=center;verticalAlign=middle;whiteSpace=wrap;rounded=0;movable=1;resizable=1;rotatable=1;deletable=1;editable=1;locked=0;connectable=1;" parent="VoS2cG7jSg4z9FvmRYZC-58" vertex="1">
                    <mxGeometry x="21" y="87.93000000000006" width="80" height="15" as="geometry"/>
                </mxCell>
                <mxCell id="VoS2cG7jSg4z9FvmRYZC-343" value="&lt;font style=&quot;font-size: 10px;&quot;&gt;Feedback info&lt;/font&gt;" style="text;html=1;strokeColor=none;fillColor=none;align=center;verticalAlign=middle;whiteSpace=wrap;rounded=0;movable=1;resizable=1;rotatable=1;deletable=1;editable=1;locked=0;connectable=1;" parent="VoS2cG7jSg4z9FvmRYZC-58" vertex="1">
                    <mxGeometry x="216" y="87.93000000000006" width="80" height="15" as="geometry"/>
                </mxCell>
                <mxCell id="VoS2cG7jSg4z9FvmRYZC-347" value="" style="whiteSpace=wrap;html=1;aspect=fixed;movable=1;resizable=1;rotatable=1;deletable=1;editable=1;locked=0;connectable=1;container=0;fontStyle=1" parent="VoS2cG7jSg4z9FvmRYZC-58" vertex="1">
                    <mxGeometry x="311.00000000000006" y="23" width="20.61" height="20.61" as="geometry"/>
                </mxCell>
                <mxCell id="VoS2cG7jSg4z9FvmRYZC-348" value="" style="whiteSpace=wrap;html=1;aspect=fixed;movable=1;resizable=1;rotatable=1;deletable=1;editable=1;locked=0;connectable=1;container=0;fontStyle=1" parent="VoS2cG7jSg4z9FvmRYZC-58" vertex="1">
                    <mxGeometry x="550.94" y="-30.610000000000014" width="20.61" height="20.61" as="geometry"/>
                </mxCell>
                <mxCell id="VoS2cG7jSg4z9FvmRYZC-349" value="" style="endArrow=none;html=1;rounded=0;exitX=1;exitY=0.5;exitDx=0;exitDy=0;entryX=0;entryY=0.5;entryDx=0;entryDy=0;" parent="VoS2cG7jSg4z9FvmRYZC-58" source="VoS2cG7jSg4z9FvmRYZC-350" target="VoS2cG7jSg4z9FvmRYZC-348" edge="1">
                    <mxGeometry width="50" height="50" relative="1" as="geometry">
                        <mxPoint x="451" y="50" as="sourcePoint"/>
                        <mxPoint x="501" as="targetPoint"/>
                    </mxGeometry>
                </mxCell>
                <mxCell id="VoS2cG7jSg4z9FvmRYZC-350" value="" style="ellipse;whiteSpace=wrap;html=1;align=center;aspect=fixed;resizable=0;points=[];outlineConnect=0;sketch=0;" parent="VoS2cG7jSg4z9FvmRYZC-58" vertex="1">
                    <mxGeometry x="441.79999999999995" y="0.6100000000000136" width="10" height="10" as="geometry"/>
                </mxCell>
                <mxCell id="VoS2cG7jSg4z9FvmRYZC-352" value="" style="endArrow=none;html=1;rounded=0;exitX=1;exitY=0.5;exitDx=0;exitDy=0;entryX=0;entryY=0.5;entryDx=0;entryDy=0;" parent="VoS2cG7jSg4z9FvmRYZC-58" source="VoS2cG7jSg4z9FvmRYZC-347" target="VoS2cG7jSg4z9FvmRYZC-350" edge="1">
                    <mxGeometry width="50" height="50" relative="1" as="geometry">
                        <mxPoint x="22" y="503" as="sourcePoint"/>
                        <mxPoint x="241" y="450" as="targetPoint"/>
                    </mxGeometry>
                </mxCell>
                <mxCell id="VoS2cG7jSg4z9FvmRYZC-196" value="" style="endArrow=none;html=1;rounded=0;entryX=0.5;entryY=1;entryDx=0;entryDy=0;exitX=0.278;exitY=0.944;exitDx=0;exitDy=0;exitPerimeter=0;" parent="VoS2cG7jSg4z9FvmRYZC-58" edge="1">
                    <mxGeometry width="50" height="50" relative="1" as="geometry">
                        <mxPoint x="219.72000000000003" y="343.8399999999999" as="sourcePoint"/>
                        <mxPoint x="219.69500000000016" y="274.61" as="targetPoint"/>
                    </mxGeometry>
                </mxCell>
                <mxCell id="3" value="" style="rounded=0;orthogonalLoop=1;jettySize=auto;html=1;endArrow=halfCircle;endFill=0;entryX=0.6;entryY=0.5;endSize=6;strokeWidth=1;sketch=0;entryDx=0;entryDy=0;entryPerimeter=0;" parent="VoS2cG7jSg4z9FvmRYZC-58" edge="1">
                    <mxGeometry relative="1" as="geometry">
                        <mxPoint x="218.8" y="345.75" as="sourcePoint"/>
                        <mxPoint x="674.7999999999997" y="345.75" as="targetPoint"/>
                    </mxGeometry>
                </mxCell>
                <mxCell id="VoS2cG7jSg4z9FvmRYZC-59" value="" style="group" parent="1" vertex="1" connectable="0">
                    <mxGeometry x="706" y="45" width="620" height="324" as="geometry"/>
                </mxCell>
                <mxCell id="VoS2cG7jSg4z9FvmRYZC-55" value="&lt;br&gt;" style="html=1;dropTarget=0;whiteSpace=wrap;" parent="VoS2cG7jSg4z9FvmRYZC-59" vertex="1">
                    <mxGeometry x="10" y="54" width="310" height="270" as="geometry"/>
                </mxCell>
                <mxCell id="VoS2cG7jSg4z9FvmRYZC-56" value="" style="shape=module;jettyWidth=8;jettyHeight=4;" parent="VoS2cG7jSg4z9FvmRYZC-55" vertex="1">
                    <mxGeometry x="1" width="11" height="20" relative="1" as="geometry">
                        <mxPoint x="-18" y="7" as="offset"/>
                    </mxGeometry>
                </mxCell>
                <mxCell id="VoS2cG7jSg4z9FvmRYZC-57" value="&lt;b style=&quot;border-color: var(--border-color);&quot;&gt;&lt;font style=&quot;font-size: 10px;&quot;&gt;Administrator&lt;/font&gt;&lt;/b&gt;" style="text;html=1;strokeColor=none;fillColor=none;align=center;verticalAlign=middle;whiteSpace=wrap;rounded=0;" parent="VoS2cG7jSg4z9FvmRYZC-59" vertex="1">
                    <mxGeometry x="99.38" y="64.52999999999997" width="81.24" height="19.47" as="geometry"/>
                </mxCell>
                <mxCell id="VoS2cG7jSg4z9FvmRYZC-90" value="&lt;font style=&quot;font-size: 8px;&quot;&gt;«Component»&lt;br&gt;&lt;b&gt;View Report&lt;/b&gt;&lt;br&gt;&lt;/font&gt;" style="html=1;dropTarget=0;whiteSpace=wrap;movable=1;resizable=1;rotatable=1;deletable=1;editable=1;locked=0;connectable=1;" parent="VoS2cG7jSg4z9FvmRYZC-59" vertex="1">
                    <mxGeometry x="74.5" y="104" width="141" height="64" as="geometry"/>
                </mxCell>
                <mxCell id="VoS2cG7jSg4z9FvmRYZC-91" value="" style="shape=module;jettyWidth=8;jettyHeight=4;" parent="VoS2cG7jSg4z9FvmRYZC-90" vertex="1">
                    <mxGeometry x="1" width="13" height="20" relative="1" as="geometry">
                        <mxPoint x="-17" y="3" as="offset"/>
                    </mxGeometry>
                </mxCell>
                <mxCell id="VoS2cG7jSg4z9FvmRYZC-346" value="" style="group" parent="VoS2cG7jSg4z9FvmRYZC-59" vertex="1" connectable="0">
                    <mxGeometry x="74.5" y="204" width="141" height="64" as="geometry"/>
                </mxCell>
                <mxCell id="VoS2cG7jSg4z9FvmRYZC-344" value="&lt;font style=&quot;font-size: 8px;&quot;&gt;«Component»&lt;br&gt;&lt;b&gt;Profile&amp;nbsp;&lt;/b&gt;&lt;br&gt;&lt;/font&gt;" style="html=1;dropTarget=0;whiteSpace=wrap;movable=1;resizable=1;rotatable=1;deletable=1;editable=1;locked=0;connectable=1;container=0;" parent="VoS2cG7jSg4z9FvmRYZC-346" vertex="1">
                    <mxGeometry width="141" height="64" as="geometry"/>
                </mxCell>
                <mxCell id="VoS2cG7jSg4z9FvmRYZC-345" value="" style="shape=module;jettyWidth=8;jettyHeight=4;container=0;" parent="VoS2cG7jSg4z9FvmRYZC-346" vertex="1">
                    <mxGeometry x="124" y="3" width="13" height="20" as="geometry">
                        <mxPoint x="-17" y="3" as="offset"/>
                    </mxGeometry>
                </mxCell>
                <mxCell id="VoS2cG7jSg4z9FvmRYZC-357" value="" style="whiteSpace=wrap;html=1;aspect=fixed;movable=1;resizable=1;rotatable=1;deletable=1;editable=1;locked=0;connectable=1;container=0;" parent="VoS2cG7jSg4z9FvmRYZC-59" vertex="1">
                    <mxGeometry y="125.69999999999999" width="20.61" height="20.61" as="geometry"/>
                </mxCell>
                <mxCell id="VoS2cG7jSg4z9FvmRYZC-358" value="" style="whiteSpace=wrap;html=1;aspect=fixed;movable=1;resizable=1;rotatable=1;deletable=1;editable=1;locked=0;connectable=1;container=0;" parent="VoS2cG7jSg4z9FvmRYZC-59" vertex="1">
                    <mxGeometry x="65" y="125.69999999999999" width="20.61" height="20.61" as="geometry"/>
                </mxCell>
                <mxCell id="VoS2cG7jSg4z9FvmRYZC-359" value="" style="whiteSpace=wrap;html=1;aspect=fixed;movable=1;resizable=1;rotatable=1;deletable=1;editable=1;locked=0;connectable=1;container=0;" parent="VoS2cG7jSg4z9FvmRYZC-59" vertex="1">
                    <mxGeometry x="65" y="225.69" width="20.61" height="20.61" as="geometry"/>
                </mxCell>
                <mxCell id="VoS2cG7jSg4z9FvmRYZC-360" value="" style="whiteSpace=wrap;html=1;aspect=fixed;movable=1;resizable=1;rotatable=1;deletable=1;editable=1;locked=0;connectable=1;container=0;" parent="VoS2cG7jSg4z9FvmRYZC-59" vertex="1">
                    <mxGeometry y="225.69" width="20.61" height="20.61" as="geometry"/>
                </mxCell>
                <mxCell id="VoS2cG7jSg4z9FvmRYZC-361" value="" style="whiteSpace=wrap;html=1;aspect=fixed;movable=1;resizable=1;rotatable=1;deletable=1;editable=1;locked=0;connectable=1;container=0;" parent="VoS2cG7jSg4z9FvmRYZC-59" vertex="1">
                    <mxGeometry y="168" width="20.61" height="20.61" as="geometry"/>
                </mxCell>
                <mxCell id="VoS2cG7jSg4z9FvmRYZC-374" value="" style="endArrow=none;html=1;rounded=0;entryX=0;entryY=0.5;entryDx=0;entryDy=0;exitX=1;exitY=0.5;exitDx=0;exitDy=0;" parent="VoS2cG7jSg4z9FvmRYZC-59" source="VoS2cG7jSg4z9FvmRYZC-360" target="VoS2cG7jSg4z9FvmRYZC-359" edge="1">
                    <mxGeometry width="50" height="50" relative="1" as="geometry">
                        <mxPoint x="-90" y="305" as="sourcePoint"/>
                        <mxPoint x="-40" y="255" as="targetPoint"/>
                    </mxGeometry>
                </mxCell>
                <mxCell id="VoS2cG7jSg4z9FvmRYZC-375" value="" style="endArrow=none;html=1;rounded=0;entryX=0;entryY=0.5;entryDx=0;entryDy=0;exitX=1;exitY=0.5;exitDx=0;exitDy=0;" parent="VoS2cG7jSg4z9FvmRYZC-59" edge="1">
                    <mxGeometry width="50" height="50" relative="1" as="geometry">
                        <mxPoint x="21" y="135.82" as="sourcePoint"/>
                        <mxPoint x="65" y="135.82" as="targetPoint"/>
                    </mxGeometry>
                </mxCell>
                <mxCell id="VoS2cG7jSg4z9FvmRYZC-376" value="" style="ellipse;whiteSpace=wrap;html=1;align=center;aspect=fixed;resizable=0;points=[];outlineConnect=0;sketch=0;" parent="VoS2cG7jSg4z9FvmRYZC-59" vertex="1">
                    <mxGeometry x="40" y="231" width="10" height="10" as="geometry"/>
                </mxCell>
                <mxCell id="VoS2cG7jSg4z9FvmRYZC-378" value="" style="ellipse;whiteSpace=wrap;html=1;align=center;aspect=fixed;resizable=0;points=[];outlineConnect=0;sketch=0;" parent="VoS2cG7jSg4z9FvmRYZC-59" vertex="1">
                    <mxGeometry x="40" y="131" width="10" height="10" as="geometry"/>
                </mxCell>
                <mxCell id="VoS2cG7jSg4z9FvmRYZC-380" value="" style="endArrow=none;html=1;rounded=0;exitX=1;exitY=0.25;exitDx=0;exitDy=0;entryX=0;entryY=1;entryDx=0;entryDy=0;" parent="VoS2cG7jSg4z9FvmRYZC-59" source="VoS2cG7jSg4z9FvmRYZC-361" target="VoS2cG7jSg4z9FvmRYZC-358" edge="1">
                    <mxGeometry width="50" height="50" relative="1" as="geometry">
                        <mxPoint x="50" y="215" as="sourcePoint"/>
                        <mxPoint x="100" y="165" as="targetPoint"/>
                    </mxGeometry>
                </mxCell>
                <mxCell id="VoS2cG7jSg4z9FvmRYZC-381" value="" style="ellipse;whiteSpace=wrap;html=1;align=center;aspect=fixed;resizable=0;points=[];outlineConnect=0;sketch=0;" parent="VoS2cG7jSg4z9FvmRYZC-59" vertex="1">
                    <mxGeometry x="39" y="154.31" width="10" height="10" as="geometry"/>
                </mxCell>
                <mxCell id="6" value="" style="whiteSpace=wrap;html=1;aspect=fixed;movable=1;resizable=1;rotatable=1;deletable=1;editable=1;locked=0;connectable=1;container=0;" parent="VoS2cG7jSg4z9FvmRYZC-59" vertex="1">
                    <mxGeometry x="314" y="225.69" width="20.61" height="20.61" as="geometry"/>
                </mxCell>
                <mxCell id="VoS2cG7jSg4z9FvmRYZC-60" value="" style="rounded=0;orthogonalLoop=1;jettySize=auto;html=1;endArrow=none;endFill=0;sketch=0;sourcePerimeterSpacing=0;targetPerimeterSpacing=0;exitX=1.011;exitY=0.454;exitDx=0;exitDy=0;exitPerimeter=0;movable=1;resizable=1;rotatable=1;deletable=1;editable=1;locked=0;connectable=1;" parent="1" target="VoS2cG7jSg4z9FvmRYZC-62" edge="1">
                    <mxGeometry relative="1" as="geometry">
                        <mxPoint x="-49.393289999999844" y="182.06694" as="sourcePoint"/>
                    </mxGeometry>
                </mxCell>
                <mxCell id="VoS2cG7jSg4z9FvmRYZC-61" value="" style="rounded=0;orthogonalLoop=1;jettySize=auto;html=1;endArrow=halfCircle;endFill=0;entryX=0.5;entryY=0.5;endSize=6;strokeWidth=1;sketch=0;exitX=-0.004;exitY=0.447;exitDx=0;exitDy=0;exitPerimeter=0;movable=1;resizable=1;rotatable=1;deletable=1;editable=1;locked=0;connectable=1;" parent="1" target="VoS2cG7jSg4z9FvmRYZC-62" edge="1">
                    <mxGeometry relative="1" as="geometry">
                        <mxPoint x="9.687560000000094" y="181.91267" as="sourcePoint"/>
                    </mxGeometry>
                </mxCell>
                <mxCell id="VoS2cG7jSg4z9FvmRYZC-62" value="" style="ellipse;whiteSpace=wrap;html=1;align=center;aspect=fixed;resizable=1;points=[];outlineConnect=0;sketch=0;movable=1;rotatable=1;deletable=1;editable=1;locked=0;connectable=1;" parent="1" vertex="1">
                    <mxGeometry x="-25.23" y="177.01" width="10" height="10" as="geometry"/>
                </mxCell>
                <mxCell id="VoS2cG7jSg4z9FvmRYZC-96" value="&lt;font style=&quot;font-size: 8px;&quot;&gt;«Component»&lt;br&gt;&lt;b style=&quot;&quot;&gt;Account&amp;nbsp;&lt;/b&gt;&lt;/font&gt;" style="html=1;dropTarget=0;whiteSpace=wrap;movable=1;resizable=1;rotatable=1;deletable=1;editable=1;locked=0;connectable=1;" parent="1" vertex="1">
                    <mxGeometry x="20" y="140" width="141" height="80" as="geometry"/>
                </mxCell>
                <mxCell id="VoS2cG7jSg4z9FvmRYZC-97" value="" style="shape=module;jettyWidth=8;jettyHeight=4;movable=1;resizable=1;rotatable=1;deletable=1;editable=1;locked=0;connectable=1;" parent="VoS2cG7jSg4z9FvmRYZC-96" vertex="1">
                    <mxGeometry x="1" width="13" height="20" relative="1" as="geometry">
                        <mxPoint x="-17" y="3" as="offset"/>
                    </mxGeometry>
                </mxCell>
                <mxCell id="VoS2cG7jSg4z9FvmRYZC-98" value="" style="whiteSpace=wrap;html=1;aspect=fixed;movable=1;resizable=1;rotatable=1;deletable=1;editable=1;locked=0;connectable=1;" parent="1" vertex="1">
                    <mxGeometry x="-70" y="171.7" width="20.61" height="20.61" as="geometry"/>
                </mxCell>
                <mxCell id="VoS2cG7jSg4z9FvmRYZC-99" value="" style="whiteSpace=wrap;html=1;aspect=fixed;movable=1;resizable=1;rotatable=1;deletable=1;editable=1;locked=0;connectable=1;" parent="1" vertex="1">
                    <mxGeometry x="10" y="171.69" width="20.61" height="20.61" as="geometry"/>
                </mxCell>
                <mxCell id="VoS2cG7jSg4z9FvmRYZC-100" value="" style="rounded=0;orthogonalLoop=1;jettySize=auto;html=1;endArrow=none;endFill=0;sketch=0;sourcePerimeterSpacing=0;targetPerimeterSpacing=0;exitX=1;exitY=0.5;exitDx=0;exitDy=0;movable=1;resizable=1;rotatable=1;deletable=1;editable=1;locked=0;connectable=1;" parent="1" source="VoS2cG7jSg4z9FvmRYZC-103" target="VoS2cG7jSg4z9FvmRYZC-102" edge="1">
                    <mxGeometry relative="1" as="geometry">
                        <mxPoint x="169.99671000000015" y="183.74694" as="sourcePoint"/>
                    </mxGeometry>
                </mxCell>
                <mxCell id="VoS2cG7jSg4z9FvmRYZC-101" value="" style="rounded=0;orthogonalLoop=1;jettySize=auto;html=1;endArrow=halfCircle;endFill=0;entryX=0.5;entryY=0.5;endSize=6;strokeWidth=1;sketch=0;exitX=0;exitY=0.5;exitDx=0;exitDy=0;movable=1;resizable=1;rotatable=1;deletable=1;editable=1;locked=0;connectable=1;" parent="1" source="VoS2cG7jSg4z9FvmRYZC-104" target="VoS2cG7jSg4z9FvmRYZC-102" edge="1">
                    <mxGeometry relative="1" as="geometry">
                        <mxPoint x="229.0775600000001" y="183.59267" as="sourcePoint"/>
                    </mxGeometry>
                </mxCell>
                <mxCell id="VoS2cG7jSg4z9FvmRYZC-102" value="" style="ellipse;whiteSpace=wrap;html=1;align=center;aspect=fixed;resizable=1;points=[];outlineConnect=0;sketch=0;movable=1;rotatable=1;deletable=1;editable=1;locked=0;connectable=1;" parent="1" vertex="1">
                    <mxGeometry x="194.15999999999997" y="178.69" width="10" height="10" as="geometry"/>
                </mxCell>
                <mxCell id="VoS2cG7jSg4z9FvmRYZC-103" value="" style="whiteSpace=wrap;html=1;aspect=fixed;movable=1;resizable=1;rotatable=1;deletable=1;editable=1;locked=0;connectable=1;" parent="1" vertex="1">
                    <mxGeometry x="150" y="173.39" width="20.61" height="20.61" as="geometry"/>
                </mxCell>
                <mxCell id="VoS2cG7jSg4z9FvmRYZC-104" value="" style="whiteSpace=wrap;html=1;aspect=fixed;movable=1;resizable=1;rotatable=1;deletable=1;editable=1;locked=0;connectable=1;" parent="1" vertex="1">
                    <mxGeometry x="230" y="173.39" width="20.61" height="20.61" as="geometry"/>
                </mxCell>
                <mxCell id="VoS2cG7jSg4z9FvmRYZC-105" value="" style="whiteSpace=wrap;html=1;aspect=fixed;movable=1;resizable=1;rotatable=1;deletable=1;editable=1;locked=0;connectable=1;" parent="1" vertex="1">
                    <mxGeometry x="80.19" y="211" width="20.61" height="20.61" as="geometry"/>
                </mxCell>
                <mxCell id="VoS2cG7jSg4z9FvmRYZC-106" value="" style="rounded=0;orthogonalLoop=1;jettySize=auto;html=1;endArrow=none;endFill=0;sketch=0;sourcePerimeterSpacing=0;targetPerimeterSpacing=0;exitX=0.5;exitY=1;exitDx=0;exitDy=0;movable=1;resizable=1;rotatable=1;deletable=1;editable=1;locked=0;connectable=1;" parent="1" source="VoS2cG7jSg4z9FvmRYZC-105" target="VoS2cG7jSg4z9FvmRYZC-108" edge="1">
                    <mxGeometry relative="1" as="geometry">
                        <mxPoint x="130.81" y="335.31" as="sourcePoint"/>
                    </mxGeometry>
                </mxCell>
                <mxCell id="VoS2cG7jSg4z9FvmRYZC-107" value="" style="rounded=0;orthogonalLoop=1;jettySize=auto;html=1;endArrow=halfCircle;endFill=0;endSize=6;strokeWidth=1;sketch=0;movable=1;resizable=1;rotatable=1;deletable=1;editable=1;locked=0;connectable=1;exitX=0.5;exitY=0;exitDx=0;exitDy=0;" parent="1" source="VoS2cG7jSg4z9FvmRYZC-109" edge="1">
                    <mxGeometry relative="1" as="geometry">
                        <mxPoint x="90.41" y="264" as="sourcePoint"/>
                        <mxPoint x="90.41" y="244" as="targetPoint"/>
                    </mxGeometry>
                </mxCell>
                <mxCell id="VoS2cG7jSg4z9FvmRYZC-108" value="" style="ellipse;whiteSpace=wrap;html=1;align=center;aspect=fixed;resizable=1;points=[];outlineConnect=0;sketch=0;movable=1;rotatable=1;deletable=1;editable=1;locked=0;connectable=1;" parent="1" vertex="1">
                    <mxGeometry x="85.49999999999997" y="240" width="10" height="10" as="geometry"/>
                </mxCell>
                <mxCell id="VoS2cG7jSg4z9FvmRYZC-109" value="" style="whiteSpace=wrap;html=1;aspect=fixed;movable=1;resizable=1;rotatable=1;deletable=1;editable=1;locked=0;connectable=1;" parent="1" vertex="1">
                    <mxGeometry x="80.19" y="270" width="20.61" height="20.61" as="geometry"/>
                </mxCell>
                <mxCell id="VoS2cG7jSg4z9FvmRYZC-110" value="&lt;font style=&quot;font-size: 10px;&quot;&gt;+ User Session&lt;/font&gt;" style="text;html=1;strokeColor=none;fillColor=none;align=center;verticalAlign=middle;whiteSpace=wrap;rounded=0;movable=1;resizable=1;rotatable=1;deletable=1;editable=1;locked=0;connectable=1;" parent="1" vertex="1">
                    <mxGeometry x="-60" y="151" width="80" height="20" as="geometry"/>
                </mxCell>
                <mxCell id="VoS2cG7jSg4z9FvmRYZC-111" value="&lt;font style=&quot;font-size: 10px;&quot;&gt;User Type&lt;/font&gt;" style="text;html=1;strokeColor=none;fillColor=none;align=center;verticalAlign=middle;whiteSpace=wrap;rounded=0;movable=1;resizable=1;rotatable=1;deletable=1;editable=1;locked=0;connectable=1;" parent="1" vertex="1">
                    <mxGeometry x="20" y="235" width="60.19" height="15" as="geometry"/>
                </mxCell>
                <mxCell id="VoS2cG7jSg4z9FvmRYZC-112" value="&lt;font style=&quot;font-size: 10px;&quot;&gt;User Type&lt;/font&gt;" style="text;html=1;strokeColor=none;fillColor=none;align=center;verticalAlign=middle;whiteSpace=wrap;rounded=0;movable=1;resizable=1;rotatable=1;deletable=1;editable=1;locked=0;connectable=1;" parent="1" vertex="1">
                    <mxGeometry x="170.61" y="158.39" width="60.19" height="15" as="geometry"/>
                </mxCell>
                <mxCell id="VoS2cG7jSg4z9FvmRYZC-113" value="" style="whiteSpace=wrap;html=1;aspect=fixed;movable=1;resizable=1;rotatable=1;deletable=1;editable=1;locked=0;connectable=1;" parent="1" vertex="1">
                    <mxGeometry x="150" y="211" width="20.61" height="20.61" as="geometry"/>
                </mxCell>
                <mxCell id="VoS2cG7jSg4z9FvmRYZC-114" value="" style="rounded=0;orthogonalLoop=1;jettySize=auto;html=1;endArrow=none;endFill=0;sketch=0;sourcePerimeterSpacing=0;targetPerimeterSpacing=0;exitX=1;exitY=1;exitDx=0;exitDy=0;movable=1;resizable=1;rotatable=1;deletable=1;editable=1;locked=0;connectable=1;" parent="1" source="VoS2cG7jSg4z9FvmRYZC-113" target="VoS2cG7jSg4z9FvmRYZC-116" edge="1">
                    <mxGeometry relative="1" as="geometry">
                        <mxPoint x="171" y="221.61" as="sourcePoint"/>
                    </mxGeometry>
                </mxCell>
                <mxCell id="VoS2cG7jSg4z9FvmRYZC-115" value="" style="rounded=0;orthogonalLoop=1;jettySize=auto;html=1;endArrow=halfCircle;endFill=0;entryX=0.5;entryY=0.5;endSize=6;strokeWidth=1;sketch=0;exitX=0;exitY=0;exitDx=0;exitDy=0;movable=1;resizable=1;rotatable=1;deletable=1;editable=1;locked=0;connectable=1;" parent="1" source="VoS2cG7jSg4z9FvmRYZC-117" target="VoS2cG7jSg4z9FvmRYZC-116" edge="1">
                    <mxGeometry relative="1" as="geometry">
                        <mxPoint x="229.0775600000001" y="221.20267" as="sourcePoint"/>
                    </mxGeometry>
                </mxCell>
                <mxCell id="VoS2cG7jSg4z9FvmRYZC-116" value="" style="ellipse;whiteSpace=wrap;html=1;align=center;aspect=fixed;resizable=1;points=[];outlineConnect=0;sketch=0;movable=1;rotatable=1;deletable=1;editable=1;locked=0;connectable=1;" parent="1" vertex="1">
                    <mxGeometry x="188.99999999999997" y="242" width="10" height="10" as="geometry"/>
                </mxCell>
                <mxCell id="VoS2cG7jSg4z9FvmRYZC-117" value="" style="whiteSpace=wrap;html=1;aspect=fixed;movable=1;resizable=1;rotatable=1;deletable=1;editable=1;locked=0;connectable=1;" parent="1" vertex="1">
                    <mxGeometry x="230" y="270" width="20.61" height="20.61" as="geometry"/>
                </mxCell>
                <mxCell id="VoS2cG7jSg4z9FvmRYZC-118" value="&lt;font style=&quot;font-size: 10px;&quot;&gt;User Type&lt;/font&gt;" style="text;html=1;strokeColor=none;fillColor=none;align=center;verticalAlign=middle;whiteSpace=wrap;rounded=0;movable=1;resizable=1;rotatable=1;deletable=1;editable=1;locked=0;connectable=1;" parent="1" vertex="1">
                    <mxGeometry x="204.16000000000003" y="231.61" width="60.19" height="15" as="geometry"/>
                </mxCell>
                <mxCell id="VoS2cG7jSg4z9FvmRYZC-51" value="&lt;b style=&quot;border-color: var(--border-color);&quot;&gt;&lt;font style=&quot;font-size: 10px;&quot;&gt;Student&lt;/font&gt;&lt;/b&gt;" style="text;html=1;strokeColor=none;fillColor=none;align=center;verticalAlign=middle;whiteSpace=wrap;rounded=0;container=0;" parent="1" vertex="1">
                    <mxGeometry x="657.88" y="471.77" width="81.24" height="19.47" as="geometry"/>
                </mxCell>
                <mxCell id="VoS2cG7jSg4z9FvmRYZC-120" value="" style="rounded=0;orthogonalLoop=1;jettySize=auto;html=1;endArrow=none;endFill=0;sketch=0;sourcePerimeterSpacing=0;targetPerimeterSpacing=0;exitX=1;exitY=1;exitDx=0;exitDy=0;movable=1;resizable=1;rotatable=1;deletable=1;editable=1;locked=0;connectable=1;entryX=0.5;entryY=0;entryDx=0;entryDy=0;" parent="1" source="VoS2cG7jSg4z9FvmRYZC-117" target="VoS2cG7jSg4z9FvmRYZC-356" edge="1">
                    <mxGeometry relative="1" as="geometry">
                        <mxPoint x="450" y="330" as="sourcePoint"/>
                        <mxPoint x="468.20649329638354" y="355.57792634459395" as="targetPoint"/>
                    </mxGeometry>
                </mxCell>
                <mxCell id="VoS2cG7jSg4z9FvmRYZC-63" value="&lt;font style=&quot;font-size: 8px;&quot;&gt;«Component»&lt;br&gt;&lt;b&gt;Profile&amp;nbsp;&lt;/b&gt;&lt;br&gt;&lt;/font&gt;" style="html=1;dropTarget=0;whiteSpace=wrap;movable=1;resizable=1;rotatable=1;deletable=1;editable=1;locked=0;connectable=1;container=0;" parent="1" vertex="1">
                    <mxGeometry x="570" y="527" width="141" height="64" as="geometry"/>
                </mxCell>
                <mxCell id="VoS2cG7jSg4z9FvmRYZC-50" value="" style="shape=module;jettyWidth=8;jettyHeight=4;container=0;" parent="1" vertex="1">
                    <mxGeometry x="1042" y="474" width="11" height="20" as="geometry">
                        <mxPoint x="-18" y="7" as="offset"/>
                    </mxGeometry>
                </mxCell>
                <mxCell id="VoS2cG7jSg4z9FvmRYZC-64" value="" style="shape=module;jettyWidth=8;jettyHeight=4;container=0;" parent="1" vertex="1">
                    <mxGeometry x="694" y="530" width="13" height="20" as="geometry">
                        <mxPoint x="-17" y="3" as="offset"/>
                    </mxGeometry>
                </mxCell>
                <mxCell id="VoS2cG7jSg4z9FvmRYZC-123" value="&lt;font style=&quot;font-size: 8px;&quot;&gt;«Component»&lt;br&gt;&lt;b&gt;Feedback Submission&amp;nbsp;&lt;/b&gt;&lt;br&gt;&lt;/font&gt;" style="html=1;dropTarget=0;whiteSpace=wrap;movable=1;resizable=1;rotatable=1;deletable=1;editable=1;locked=0;connectable=1;container=0;" parent="1" vertex="1">
                    <mxGeometry x="729.5" y="527" width="141" height="64" as="geometry"/>
                </mxCell>
                <mxCell id="VoS2cG7jSg4z9FvmRYZC-124" value="&lt;font style=&quot;font-size: 8px;&quot;&gt;«Component»&lt;br&gt;&lt;b&gt;Review Feedback&amp;nbsp;&lt;/b&gt;&lt;br&gt;&lt;/font&gt;" style="html=1;dropTarget=0;whiteSpace=wrap;movable=1;resizable=1;rotatable=1;deletable=1;editable=1;locked=0;connectable=1;container=0;" parent="1" vertex="1">
                    <mxGeometry x="889" y="527" width="141" height="64" as="geometry"/>
                </mxCell>
                <mxCell id="VoS2cG7jSg4z9FvmRYZC-125" value="" style="rounded=0;orthogonalLoop=1;jettySize=auto;html=1;endArrow=none;endFill=0;sketch=0;sourcePerimeterSpacing=0;targetPerimeterSpacing=0;exitX=0.5;exitY=1;exitDx=0;exitDy=0;movable=1;resizable=1;rotatable=1;deletable=1;editable=1;locked=0;connectable=1;" parent="1" target="VoS2cG7jSg4z9FvmRYZC-127" edge="1">
                    <mxGeometry relative="1" as="geometry">
                        <mxPoint x="698.5049999999997" y="473.9999999999999" as="sourcePoint"/>
                    </mxGeometry>
                </mxCell>
                <mxCell id="VoS2cG7jSg4z9FvmRYZC-127" value="" style="ellipse;whiteSpace=wrap;html=1;align=center;aspect=fixed;resizable=1;points=[];outlineConnect=0;sketch=0;movable=1;rotatable=1;deletable=1;editable=1;locked=0;connectable=1;" parent="1" vertex="1">
                    <mxGeometry x="754" y="492" width="10" height="10" as="geometry"/>
                </mxCell>
                <mxCell id="VoS2cG7jSg4z9FvmRYZC-128" value="" style="rounded=0;orthogonalLoop=1;jettySize=auto;html=1;endArrow=none;endFill=0;sketch=0;sourcePerimeterSpacing=0;targetPerimeterSpacing=0;exitX=0;exitY=1;exitDx=0;exitDy=0;movable=1;resizable=1;rotatable=1;deletable=1;editable=1;locked=0;connectable=1;" parent="1" target="VoS2cG7jSg4z9FvmRYZC-130" edge="1">
                    <mxGeometry relative="1" as="geometry">
                        <mxPoint x="688.1999999999998" y="473.9999999999999" as="sourcePoint"/>
                    </mxGeometry>
                </mxCell>
                <mxCell id="VoS2cG7jSg4z9FvmRYZC-130" value="" style="ellipse;whiteSpace=wrap;html=1;align=center;aspect=fixed;resizable=1;points=[];outlineConnect=0;sketch=0;movable=1;rotatable=1;deletable=1;editable=1;locked=0;connectable=1;" parent="1" vertex="1">
                    <mxGeometry x="669" y="485.26" width="10" height="10" as="geometry"/>
                </mxCell>
                <mxCell id="VoS2cG7jSg4z9FvmRYZC-131" value="" style="whiteSpace=wrap;html=1;aspect=fixed;movable=1;resizable=1;rotatable=1;deletable=1;editable=1;locked=0;connectable=1;container=0;" parent="1" vertex="1">
                    <mxGeometry x="630.2" y="516" width="20.61" height="20.61" as="geometry"/>
                </mxCell>
                <mxCell id="VoS2cG7jSg4z9FvmRYZC-132" value="" style="whiteSpace=wrap;html=1;aspect=fixed;movable=1;resizable=1;rotatable=1;deletable=1;editable=1;locked=0;connectable=1;container=0;" parent="1" vertex="1">
                    <mxGeometry x="789.69" y="516" width="20.61" height="20.61" as="geometry"/>
                </mxCell>
                <mxCell id="VoS2cG7jSg4z9FvmRYZC-133" value="" style="whiteSpace=wrap;html=1;aspect=fixed;movable=1;resizable=1;rotatable=1;deletable=1;editable=1;locked=0;connectable=1;container=0;" parent="1" vertex="1">
                    <mxGeometry x="949.19" y="516" width="20.61" height="20.61" as="geometry"/>
                </mxCell>
                <mxCell id="VoS2cG7jSg4z9FvmRYZC-137" value="" style="rounded=0;orthogonalLoop=1;jettySize=auto;html=1;endArrow=none;endFill=0;sketch=0;sourcePerimeterSpacing=0;targetPerimeterSpacing=0;exitX=1;exitY=0.75;exitDx=0;exitDy=0;movable=1;resizable=1;rotatable=1;deletable=1;editable=1;locked=0;connectable=1;" parent="1" target="VoS2cG7jSg4z9FvmRYZC-139" edge="1">
                    <mxGeometry relative="1" as="geometry">
                        <mxPoint x="708.81" y="468.84749999999997" as="sourcePoint"/>
                    </mxGeometry>
                </mxCell>
                <mxCell id="VoS2cG7jSg4z9FvmRYZC-139" value="" style="ellipse;whiteSpace=wrap;html=1;align=center;aspect=fixed;resizable=1;points=[];outlineConnect=0;sketch=0;movable=1;rotatable=1;deletable=1;editable=1;locked=0;connectable=1;" parent="1" vertex="1">
                    <mxGeometry x="879" y="487" width="10" height="10" as="geometry"/>
                </mxCell>
                <mxCell id="VoS2cG7jSg4z9FvmRYZC-144" value="" style="whiteSpace=wrap;html=1;aspect=fixed;movable=1;resizable=1;rotatable=1;deletable=1;editable=1;locked=0;connectable=1;container=0;fontStyle=1" parent="1" vertex="1">
                    <mxGeometry x="789.69" y="586" width="20.61" height="20.61" as="geometry"/>
                </mxCell>
                <mxCell id="VoS2cG7jSg4z9FvmRYZC-145" value="" style="whiteSpace=wrap;html=1;aspect=fixed;movable=1;resizable=1;rotatable=1;deletable=1;editable=1;locked=0;connectable=1;container=0;" parent="1" vertex="1">
                    <mxGeometry x="949.19" y="586" width="20.61" height="20.61" as="geometry"/>
                </mxCell>
                <mxCell id="VoS2cG7jSg4z9FvmRYZC-157" value="&lt;font style=&quot;font-size: 10px;&quot;&gt;View Profile&lt;/font&gt;" style="text;html=1;strokeColor=none;fillColor=none;align=center;verticalAlign=middle;whiteSpace=wrap;rounded=0;movable=1;resizable=1;rotatable=1;deletable=1;editable=1;locked=0;connectable=1;" parent="1" vertex="1">
                    <mxGeometry x="673.3" y="501" width="60.19" height="15" as="geometry"/>
                </mxCell>
                <mxCell id="VoS2cG7jSg4z9FvmRYZC-158" value="&lt;font style=&quot;font-size: 10px;&quot;&gt;Create new feedback&lt;/font&gt;" style="text;html=1;strokeColor=none;fillColor=none;align=center;verticalAlign=middle;whiteSpace=wrap;rounded=0;movable=1;resizable=1;rotatable=1;deletable=1;editable=1;locked=0;connectable=1;" parent="1" vertex="1">
                    <mxGeometry x="764" y="487" width="60.19" height="15" as="geometry"/>
                </mxCell>
                <mxCell id="VoS2cG7jSg4z9FvmRYZC-159" value="&lt;font style=&quot;font-size: 10px;&quot;&gt;Review&lt;/font&gt;" style="text;html=1;strokeColor=none;fillColor=none;align=center;verticalAlign=middle;whiteSpace=wrap;rounded=0;movable=1;resizable=1;rotatable=1;deletable=1;editable=1;locked=0;connectable=1;" parent="1" vertex="1">
                    <mxGeometry x="889" y="474" width="60.19" height="15" as="geometry"/>
                </mxCell>
                <mxCell id="VoS2cG7jSg4z9FvmRYZC-161" value="" style="rounded=0;orthogonalLoop=1;jettySize=auto;html=1;endArrow=halfCircle;endFill=0;entryX=0.5;entryY=0.5;endSize=6;strokeWidth=1;sketch=0;exitX=0.5;exitY=0;exitDx=0;exitDy=0;" parent="1" source="VoS2cG7jSg4z9FvmRYZC-178" target="VoS2cG7jSg4z9FvmRYZC-162" edge="1">
                    <mxGeometry relative="1" as="geometry">
                        <mxPoint x="1103" y="623" as="sourcePoint"/>
                    </mxGeometry>
                </mxCell>
                <mxCell id="VoS2cG7jSg4z9FvmRYZC-162" value="" style="ellipse;whiteSpace=wrap;html=1;align=center;aspect=fixed;resizable=0;points=[];outlineConnect=0;sketch=0;" parent="1" vertex="1">
                    <mxGeometry x="794.99" y="721" width="10" height="10" as="geometry"/>
                </mxCell>
                <mxCell id="VoS2cG7jSg4z9FvmRYZC-170" value="" style="endArrow=none;html=1;rounded=0;entryX=0.5;entryY=1;entryDx=0;entryDy=0;" parent="1" source="VoS2cG7jSg4z9FvmRYZC-209" target="VoS2cG7jSg4z9FvmRYZC-144" edge="1">
                    <mxGeometry width="50" height="50" relative="1" as="geometry">
                        <mxPoint x="800" y="659" as="sourcePoint"/>
                        <mxPoint x="799.9950000000003" y="609.6099999999999" as="targetPoint"/>
                    </mxGeometry>
                </mxCell>
                <mxCell id="VoS2cG7jSg4z9FvmRYZC-171" value="" style="endArrow=none;html=1;rounded=0;" parent="1" source="VoS2cG7jSg4z9FvmRYZC-205" target="VoS2cG7jSg4z9FvmRYZC-162" edge="1">
                    <mxGeometry width="50" height="50" relative="1" as="geometry">
                        <mxPoint x="766" y="659" as="sourcePoint"/>
                        <mxPoint x="801.04" y="633" as="targetPoint"/>
                    </mxGeometry>
                </mxCell>
                <mxCell id="VoS2cG7jSg4z9FvmRYZC-174" value="" style="shape=module;jettyWidth=8;jettyHeight=4;container=0;" parent="1" vertex="1">
                    <mxGeometry x="854.19" y="530" width="11" height="20" as="geometry">
                        <mxPoint x="-18" y="7" as="offset"/>
                    </mxGeometry>
                </mxCell>
                <mxCell id="VoS2cG7jSg4z9FvmRYZC-175" value="" style="shape=module;jettyWidth=8;jettyHeight=4;container=0;" parent="1" vertex="1">
                    <mxGeometry x="1014" y="530" width="11" height="20" as="geometry">
                        <mxPoint x="-18" y="7" as="offset"/>
                    </mxGeometry>
                </mxCell>
                <mxCell id="VoS2cG7jSg4z9FvmRYZC-176" value="&lt;font style=&quot;font-size: 8px;&quot;&gt;«Component»&lt;br&gt;&lt;b&gt;Database&lt;/b&gt;&lt;br&gt;&lt;/font&gt;" style="html=1;dropTarget=0;whiteSpace=wrap;movable=1;resizable=1;rotatable=1;deletable=1;editable=1;locked=0;connectable=1;" parent="1" vertex="1">
                    <mxGeometry x="725.75" y="780" width="150.51" height="80" as="geometry"/>
                </mxCell>
                <mxCell id="VoS2cG7jSg4z9FvmRYZC-177" value="" style="shape=module;jettyWidth=8;jettyHeight=4;" parent="VoS2cG7jSg4z9FvmRYZC-176" vertex="1">
                    <mxGeometry x="1" width="13" height="20" relative="1" as="geometry">
                        <mxPoint x="-17" y="3" as="offset"/>
                    </mxGeometry>
                </mxCell>
                <mxCell id="VoS2cG7jSg4z9FvmRYZC-178" value="" style="whiteSpace=wrap;html=1;aspect=fixed;movable=1;resizable=1;rotatable=1;deletable=1;editable=1;locked=0;connectable=1;container=0;fontStyle=1" parent="1" vertex="1">
                    <mxGeometry x="790.7" y="770" width="20.61" height="20.61" as="geometry"/>
                </mxCell>
                <mxCell id="VoS2cG7jSg4z9FvmRYZC-179" value="" style="whiteSpace=wrap;html=1;aspect=fixed;movable=1;resizable=1;rotatable=1;deletable=1;editable=1;locked=0;connectable=1;container=0;fontStyle=1" parent="1" vertex="1">
                    <mxGeometry x="863.3900000000001" y="809.69" width="20.61" height="20.61" as="geometry"/>
                </mxCell>
                <mxCell id="VoS2cG7jSg4z9FvmRYZC-180" value="" style="whiteSpace=wrap;html=1;aspect=fixed;movable=1;resizable=1;rotatable=1;deletable=1;editable=1;locked=0;connectable=1;container=0;fontStyle=1" parent="1" vertex="1">
                    <mxGeometry x="716.0000000000001" y="809.69" width="20.61" height="20.61" as="geometry"/>
                </mxCell>
                <mxCell id="VoS2cG7jSg4z9FvmRYZC-181" value="" style="rounded=0;orthogonalLoop=1;jettySize=auto;html=1;endArrow=halfCircle;endFill=0;endSize=6;strokeWidth=1;sketch=0;exitX=0;exitY=1;exitDx=0;exitDy=0;entryX=0;entryY=0;entryDx=0;entryDy=0;" parent="1" source="VoS2cG7jSg4z9FvmRYZC-207" edge="1">
                    <mxGeometry relative="1" as="geometry">
                        <mxPoint x="945.1999999999998" y="700.31" as="sourcePoint"/>
                        <mxPoint x="902" y="725" as="targetPoint"/>
                    </mxGeometry>
                </mxCell>
                <mxCell id="VoS2cG7jSg4z9FvmRYZC-182" value="" style="ellipse;whiteSpace=wrap;html=1;align=center;aspect=fixed;resizable=0;points=[];outlineConnect=0;sketch=0;" parent="1" vertex="1">
                    <mxGeometry x="896" y="720" width="10" height="10" as="geometry"/>
                </mxCell>
                <mxCell id="VoS2cG7jSg4z9FvmRYZC-184" value="" style="endArrow=none;html=1;rounded=0;entryX=1;entryY=0;entryDx=0;entryDy=0;" parent="1" source="VoS2cG7jSg4z9FvmRYZC-182" target="VoS2cG7jSg4z9FvmRYZC-178" edge="1">
                    <mxGeometry width="50" height="50" relative="1" as="geometry">
                        <mxPoint x="977.82" y="685" as="sourcePoint"/>
                        <mxPoint x="977.82" y="762" as="targetPoint"/>
                    </mxGeometry>
                </mxCell>
                <mxCell id="VoS2cG7jSg4z9FvmRYZC-186" value="" style="whiteSpace=wrap;html=1;aspect=fixed;movable=1;resizable=1;rotatable=1;deletable=1;editable=1;locked=0;connectable=1;container=0;fontStyle=1" parent="1" vertex="1">
                    <mxGeometry x="630.2" y="586" width="20.61" height="20.61" as="geometry"/>
                </mxCell>
                <mxCell id="VoS2cG7jSg4z9FvmRYZC-189" value="" style="endArrow=none;html=1;rounded=0;exitX=0;exitY=0;exitDx=0;exitDy=0;" parent="1" source="VoS2cG7jSg4z9FvmRYZC-178" target="VoS2cG7jSg4z9FvmRYZC-187" edge="1">
                    <mxGeometry width="50" height="50" relative="1" as="geometry">
                        <mxPoint x="850" y="622.61" as="sourcePoint"/>
                        <mxPoint x="885.04" y="596.61" as="targetPoint"/>
                    </mxGeometry>
                </mxCell>
                <mxCell id="VoS2cG7jSg4z9FvmRYZC-54" value="&lt;b style=&quot;border-color: var(--border-color);&quot;&gt;&lt;font style=&quot;font-size: 10px;&quot;&gt;Lecturer&lt;/font&gt;&lt;/b&gt;" style="text;html=1;strokeColor=none;fillColor=none;align=center;verticalAlign=middle;whiteSpace=wrap;rounded=0;movable=1;resizable=1;rotatable=1;deletable=1;editable=1;locked=0;connectable=1;" parent="1" vertex="1">
                    <mxGeometry x="-215.1269830769231" y="409.99736842105256" width="221.65396615384614" height="35.86578947368421" as="geometry"/>
                </mxCell>
                <mxCell id="VoS2cG7jSg4z9FvmRYZC-192" value="" style="rounded=0;orthogonalLoop=1;jettySize=auto;html=1;endArrow=none;endFill=0;sketch=0;sourcePerimeterSpacing=0;targetPerimeterSpacing=0;exitX=0;exitY=0.5;exitDx=0;exitDy=0;" parent="1" source="VoS2cG7jSg4z9FvmRYZC-180" target="VoS2cG7jSg4z9FvmRYZC-194" edge="1">
                    <mxGeometry relative="1" as="geometry">
                        <mxPoint x="665" y="815.9949999999999" as="sourcePoint"/>
                    </mxGeometry>
                </mxCell>
                <mxCell id="VoS2cG7jSg4z9FvmRYZC-204" value="" style="whiteSpace=wrap;html=1;aspect=fixed;movable=1;resizable=1;rotatable=1;deletable=1;editable=1;locked=0;connectable=1;container=0;fontStyle=1" parent="1" vertex="1">
                    <mxGeometry x="630.2" y="675.7" width="20.61" height="20.61" as="geometry"/>
                </mxCell>
                <mxCell id="VoS2cG7jSg4z9FvmRYZC-206" value="" style="endArrow=none;html=1;rounded=0;" parent="1" target="VoS2cG7jSg4z9FvmRYZC-205" edge="1">
                    <mxGeometry width="50" height="50" relative="1" as="geometry">
                        <mxPoint x="800" y="659" as="sourcePoint"/>
                        <mxPoint x="800" y="711" as="targetPoint"/>
                    </mxGeometry>
                </mxCell>
                <mxCell id="VoS2cG7jSg4z9FvmRYZC-205" value="" style="whiteSpace=wrap;html=1;aspect=fixed;movable=1;resizable=1;rotatable=1;deletable=1;editable=1;locked=0;connectable=1;container=0;fontStyle=1" parent="1" vertex="1">
                    <mxGeometry x="789.69" y="675.7" width="20.61" height="20.61" as="geometry"/>
                </mxCell>
                <mxCell id="VoS2cG7jSg4z9FvmRYZC-207" value="" style="whiteSpace=wrap;html=1;aspect=fixed;movable=1;resizable=1;rotatable=1;deletable=1;editable=1;locked=0;connectable=1;container=0;fontStyle=1" parent="1" vertex="1">
                    <mxGeometry x="949.2" y="675.7" width="20.61" height="20.61" as="geometry"/>
                </mxCell>
                <mxCell id="VoS2cG7jSg4z9FvmRYZC-208" value="" style="ellipse;whiteSpace=wrap;html=1;align=center;aspect=fixed;resizable=0;points=[];outlineConnect=0;sketch=0;" parent="1" vertex="1">
                    <mxGeometry x="635.5" y="636" width="10" height="10" as="geometry"/>
                </mxCell>
                <mxCell id="VoS2cG7jSg4z9FvmRYZC-210" value="" style="endArrow=none;html=1;rounded=0;entryX=0.5;entryY=1;entryDx=0;entryDy=0;" parent="1" target="VoS2cG7jSg4z9FvmRYZC-209" edge="1">
                    <mxGeometry width="50" height="50" relative="1" as="geometry">
                        <mxPoint x="800" y="659" as="sourcePoint"/>
                        <mxPoint x="800" y="607" as="targetPoint"/>
                    </mxGeometry>
                </mxCell>
                <mxCell id="VoS2cG7jSg4z9FvmRYZC-209" value="" style="ellipse;whiteSpace=wrap;html=1;align=center;aspect=fixed;resizable=0;points=[];outlineConnect=0;sketch=0;" parent="1" vertex="1">
                    <mxGeometry x="794.99" y="636" width="10" height="10" as="geometry"/>
                </mxCell>
                <mxCell id="VoS2cG7jSg4z9FvmRYZC-211" value="" style="ellipse;whiteSpace=wrap;html=1;align=center;aspect=fixed;resizable=0;points=[];outlineConnect=0;sketch=0;" parent="1" vertex="1">
                    <mxGeometry x="954.5" y="636" width="10" height="10" as="geometry"/>
                </mxCell>
                <mxCell id="VoS2cG7jSg4z9FvmRYZC-212" value="" style="rounded=0;orthogonalLoop=1;jettySize=auto;html=1;endArrow=halfCircle;endFill=0;endSize=6;strokeWidth=1;sketch=0;exitX=1;exitY=1;exitDx=0;exitDy=0;" parent="1" source="VoS2cG7jSg4z9FvmRYZC-204" edge="1">
                    <mxGeometry relative="1" as="geometry">
                        <mxPoint x="652.81" y="698.3100000000001" as="sourcePoint"/>
                        <mxPoint x="680" y="726" as="targetPoint"/>
                    </mxGeometry>
                </mxCell>
                <mxCell id="VoS2cG7jSg4z9FvmRYZC-187" value="" style="ellipse;whiteSpace=wrap;html=1;align=center;aspect=fixed;resizable=0;points=[];outlineConnect=0;sketch=0;" parent="1" vertex="1">
                    <mxGeometry x="675" y="721" width="10" height="10" as="geometry"/>
                </mxCell>
                <mxCell id="VoS2cG7jSg4z9FvmRYZC-220" value="" style="endArrow=none;html=1;rounded=0;entryX=0.5;entryY=0;entryDx=0;entryDy=0;" parent="1" source="VoS2cG7jSg4z9FvmRYZC-208" target="VoS2cG7jSg4z9FvmRYZC-204" edge="1">
                    <mxGeometry width="50" height="50" relative="1" as="geometry">
                        <mxPoint x="640.36" y="646" as="sourcePoint"/>
                        <mxPoint x="640.36" y="663" as="targetPoint"/>
                    </mxGeometry>
                </mxCell>
                <mxCell id="VoS2cG7jSg4z9FvmRYZC-221" value="" style="endArrow=none;html=1;rounded=0;entryX=0.5;entryY=0;entryDx=0;entryDy=0;" parent="1" edge="1">
                    <mxGeometry width="50" height="50" relative="1" as="geometry">
                        <mxPoint x="640.36" y="606.61" as="sourcePoint"/>
                        <mxPoint x="640.36" y="636.61" as="targetPoint"/>
                    </mxGeometry>
                </mxCell>
                <mxCell id="VoS2cG7jSg4z9FvmRYZC-223" value="" style="endArrow=none;html=1;rounded=0;entryX=0.5;entryY=0;entryDx=0;entryDy=0;" parent="1" edge="1">
                    <mxGeometry width="50" height="50" relative="1" as="geometry">
                        <mxPoint x="959.3200000000002" y="606.61" as="sourcePoint"/>
                        <mxPoint x="959.3200000000002" y="636.61" as="targetPoint"/>
                    </mxGeometry>
                </mxCell>
                <mxCell id="VoS2cG7jSg4z9FvmRYZC-224" value="" style="endArrow=none;html=1;rounded=0;entryX=0.5;entryY=0;entryDx=0;entryDy=0;" parent="1" edge="1">
                    <mxGeometry width="50" height="50" relative="1" as="geometry">
                        <mxPoint x="959.3200000000002" y="645.7" as="sourcePoint"/>
                        <mxPoint x="959.3200000000002" y="675.7" as="targetPoint"/>
                    </mxGeometry>
                </mxCell>
                <mxCell id="VoS2cG7jSg4z9FvmRYZC-256" value="" style="whiteSpace=wrap;html=1;aspect=fixed;movable=1;resizable=1;rotatable=1;deletable=1;editable=1;locked=0;connectable=1;container=0;fontStyle=1" parent="1" vertex="1">
                    <mxGeometry x="-248.22999999999993" y="389.39" width="20.61" height="20.61" as="geometry"/>
                </mxCell>
                <mxCell id="VoS2cG7jSg4z9FvmRYZC-269" value="" style="rounded=0;orthogonalLoop=1;jettySize=auto;html=1;endArrow=halfCircle;endFill=0;endSize=6;strokeWidth=1;sketch=0;exitX=1;exitY=0;exitDx=0;exitDy=0;" parent="1" source="VoS2cG7jSg4z9FvmRYZC-131" edge="1">
                    <mxGeometry relative="1" as="geometry">
                        <mxPoint x="661.6575" y="511" as="sourcePoint"/>
                        <mxPoint x="674" y="490" as="targetPoint"/>
                    </mxGeometry>
                </mxCell>
                <mxCell id="VoS2cG7jSg4z9FvmRYZC-271" value="" style="rounded=0;orthogonalLoop=1;jettySize=auto;html=1;endArrow=halfCircle;endFill=0;endSize=6;strokeWidth=1;sketch=0;exitX=0.5;exitY=0;exitDx=0;exitDy=0;" parent="1" source="VoS2cG7jSg4z9FvmRYZC-132" edge="1">
                    <mxGeometry relative="1" as="geometry">
                        <mxPoint x="764.9949999999999" y="503" as="sourcePoint"/>
                        <mxPoint x="759" y="497" as="targetPoint"/>
                    </mxGeometry>
                </mxCell>
                <mxCell id="VoS2cG7jSg4z9FvmRYZC-272" value="" style="rounded=0;orthogonalLoop=1;jettySize=auto;html=1;endArrow=halfCircle;endFill=0;endSize=6;strokeWidth=1;sketch=0;exitX=0;exitY=0;exitDx=0;exitDy=0;" parent="1" source="VoS2cG7jSg4z9FvmRYZC-133" edge="1">
                    <mxGeometry relative="1" as="geometry">
                        <mxPoint x="943.4950000000003" y="512" as="sourcePoint"/>
                        <mxPoint x="884" y="492" as="targetPoint"/>
                    </mxGeometry>
                </mxCell>
                <mxCell id="VoS2cG7jSg4z9FvmRYZC-273" value="&lt;font style=&quot;font-size: 10px;&quot;&gt;Student Info&lt;/font&gt;" style="text;html=1;strokeColor=none;fillColor=none;align=center;verticalAlign=middle;whiteSpace=wrap;rounded=0;movable=1;resizable=1;rotatable=1;deletable=1;editable=1;locked=0;connectable=1;" parent="1" vertex="1">
                    <mxGeometry x="607.71" y="721" width="65.59" height="20" as="geometry"/>
                </mxCell>
                <mxCell id="VoS2cG7jSg4z9FvmRYZC-274" value="&lt;font style=&quot;font-size: 10px;&quot;&gt;Feedback&lt;/font&gt;" style="text;html=1;strokeColor=none;fillColor=none;align=center;verticalAlign=middle;whiteSpace=wrap;rounded=0;movable=1;resizable=1;rotatable=1;deletable=1;editable=1;locked=0;connectable=1;" parent="1" vertex="1">
                    <mxGeometry x="736.61" y="715" width="60.19" height="15" as="geometry"/>
                </mxCell>
                <mxCell id="VoS2cG7jSg4z9FvmRYZC-275" value="&lt;font style=&quot;font-size: 10px;&quot;&gt;Feedback info&lt;/font&gt;" style="text;html=1;strokeColor=none;fillColor=none;align=center;verticalAlign=middle;whiteSpace=wrap;rounded=0;movable=1;resizable=1;rotatable=1;deletable=1;editable=1;locked=0;connectable=1;" parent="1" vertex="1">
                    <mxGeometry x="906" y="721" width="74" height="15" as="geometry"/>
                </mxCell>
                <mxCell id="VoS2cG7jSg4z9FvmRYZC-277" value="" style="rounded=0;orthogonalLoop=1;jettySize=auto;html=1;endArrow=none;endFill=0;sketch=0;sourcePerimeterSpacing=0;targetPerimeterSpacing=0;exitX=0.5;exitY=1;exitDx=0;exitDy=0;" parent="1" source="VoS2cG7jSg4z9FvmRYZC-109" target="VoS2cG7jSg4z9FvmRYZC-279" edge="1">
                    <mxGeometry relative="1" as="geometry">
                        <mxPoint x="24.7" y="345" as="sourcePoint"/>
                    </mxGeometry>
                </mxCell>
                <mxCell id="VoS2cG7jSg4z9FvmRYZC-278" value="" style="rounded=0;orthogonalLoop=1;jettySize=auto;html=1;endArrow=halfCircle;endFill=0;entryX=0.5;entryY=0.5;endSize=6;strokeWidth=1;sketch=0;exitX=0.5;exitY=0;exitDx=0;exitDy=0;" parent="1" source="VoS2cG7jSg4z9FvmRYZC-255" target="VoS2cG7jSg4z9FvmRYZC-279" edge="1">
                    <mxGeometry relative="1" as="geometry">
                        <mxPoint x="64.7" y="345" as="sourcePoint"/>
                    </mxGeometry>
                </mxCell>
                <mxCell id="VoS2cG7jSg4z9FvmRYZC-279" value="" style="ellipse;whiteSpace=wrap;html=1;align=center;aspect=fixed;resizable=0;points=[];outlineConnect=0;sketch=0;" parent="1" vertex="1">
                    <mxGeometry x="15.310000000000002" y="333" width="10" height="10" as="geometry"/>
                </mxCell>
                <mxCell id="VoS2cG7jSg4z9FvmRYZC-280" value="" style="rounded=0;orthogonalLoop=1;jettySize=auto;html=1;endArrow=none;endFill=0;sketch=0;sourcePerimeterSpacing=0;targetPerimeterSpacing=0;" parent="1" target="VoS2cG7jSg4z9FvmRYZC-282" edge="1">
                    <mxGeometry relative="1" as="geometry">
                        <mxPoint x="80" y="290" as="sourcePoint"/>
                    </mxGeometry>
                </mxCell>
                <mxCell id="VoS2cG7jSg4z9FvmRYZC-281" value="" style="rounded=0;orthogonalLoop=1;jettySize=auto;html=1;endArrow=halfCircle;endFill=0;entryX=0.5;entryY=0.5;endSize=6;strokeWidth=1;sketch=0;exitX=1;exitY=0;exitDx=0;exitDy=0;" parent="1" source="VoS2cG7jSg4z9FvmRYZC-256" target="VoS2cG7jSg4z9FvmRYZC-282" edge="1">
                    <mxGeometry relative="1" as="geometry">
                        <mxPoint x="-49.39" y="345" as="sourcePoint"/>
                    </mxGeometry>
                </mxCell>
                <mxCell id="VoS2cG7jSg4z9FvmRYZC-282" value="" style="ellipse;whiteSpace=wrap;html=1;align=center;aspect=fixed;resizable=0;points=[];outlineConnect=0;sketch=0;" parent="1" vertex="1">
                    <mxGeometry x="-62" y="333" width="10" height="10" as="geometry"/>
                </mxCell>
                <mxCell id="VoS2cG7jSg4z9FvmRYZC-283" value="" style="rounded=0;orthogonalLoop=1;jettySize=auto;html=1;endArrow=none;endFill=0;sketch=0;sourcePerimeterSpacing=0;targetPerimeterSpacing=0;exitX=1;exitY=1;exitDx=0;exitDy=0;" parent="1" source="VoS2cG7jSg4z9FvmRYZC-109" target="VoS2cG7jSg4z9FvmRYZC-285" edge="1">
                    <mxGeometry relative="1" as="geometry">
                        <mxPoint x="149" y="342" as="sourcePoint"/>
                    </mxGeometry>
                </mxCell>
                <mxCell id="VoS2cG7jSg4z9FvmRYZC-284" value="" style="rounded=0;orthogonalLoop=1;jettySize=auto;html=1;endArrow=halfCircle;endFill=0;entryX=0.5;entryY=0.5;endSize=6;strokeWidth=1;sketch=0;exitX=0.5;exitY=0;exitDx=0;exitDy=0;" parent="1" source="VoS2cG7jSg4z9FvmRYZC-254" target="VoS2cG7jSg4z9FvmRYZC-285" edge="1">
                    <mxGeometry relative="1" as="geometry">
                        <mxPoint x="189" y="342" as="sourcePoint"/>
                    </mxGeometry>
                </mxCell>
                <mxCell id="VoS2cG7jSg4z9FvmRYZC-285" value="" style="ellipse;whiteSpace=wrap;html=1;align=center;aspect=fixed;resizable=0;points=[];outlineConnect=0;sketch=0;" parent="1" vertex="1">
                    <mxGeometry x="105.19" y="337" width="10" height="10" as="geometry"/>
                </mxCell>
                <mxCell id="VoS2cG7jSg4z9FvmRYZC-286" value="" style="rounded=0;orthogonalLoop=1;jettySize=auto;html=1;endArrow=none;endFill=0;sketch=0;sourcePerimeterSpacing=0;targetPerimeterSpacing=0;exitX=0.5;exitY=1;exitDx=0;exitDy=0;" parent="1" source="VoS2cG7jSg4z9FvmRYZC-256" target="VoS2cG7jSg4z9FvmRYZC-287" edge="1">
                    <mxGeometry relative="1" as="geometry">
                        <mxPoint x="-89.13999999999999" y="380" as="sourcePoint"/>
                    </mxGeometry>
                </mxCell>
                <mxCell id="VoS2cG7jSg4z9FvmRYZC-289" value="" style="ellipse;whiteSpace=wrap;html=1;align=center;aspect=fixed;resizable=0;points=[];outlineConnect=0;sketch=0;" parent="1" vertex="1">
                    <mxGeometry x="-64.37999999999997" y="432" width="10" height="10" as="geometry"/>
                </mxCell>
                <mxCell id="VoS2cG7jSg4z9FvmRYZC-290" value="" style="rounded=0;orthogonalLoop=1;jettySize=auto;html=1;endArrow=none;endFill=0;sketch=0;sourcePerimeterSpacing=0;targetPerimeterSpacing=0;entryX=0.5;entryY=0;entryDx=0;entryDy=0;" parent="1" source="VoS2cG7jSg4z9FvmRYZC-289" edge="1">
                    <mxGeometry relative="1" as="geometry">
                        <mxPoint x="-61.47" y="442" as="sourcePoint"/>
                        <mxPoint x="-59.849999999999994" y="460" as="targetPoint"/>
                    </mxGeometry>
                </mxCell>
                <mxCell id="VoS2cG7jSg4z9FvmRYZC-291" value="" style="rounded=0;orthogonalLoop=1;jettySize=auto;html=1;endArrow=none;endFill=0;sketch=0;sourcePerimeterSpacing=0;targetPerimeterSpacing=0;exitX=0.5;exitY=1;exitDx=0;exitDy=0;" parent="1" target="VoS2cG7jSg4z9FvmRYZC-289" edge="1">
                    <mxGeometry relative="1" as="geometry">
                        <mxPoint x="-58.849999999999994" y="410" as="sourcePoint"/>
                    </mxGeometry>
                </mxCell>
                <mxCell id="VoS2cG7jSg4z9FvmRYZC-302" value="" style="group;rotation=0;" parent="1" vertex="1" connectable="0">
                    <mxGeometry x="347" y="835" width="40" height="10" as="geometry"/>
                </mxCell>
                <mxCell id="VoS2cG7jSg4z9FvmRYZC-303" value="" style="ellipse;whiteSpace=wrap;html=1;align=center;aspect=fixed;resizable=0;points=[];outlineConnect=0;sketch=0;rotation=-180;" parent="VoS2cG7jSg4z9FvmRYZC-302" vertex="1">
                    <mxGeometry x="15" width="10" height="10" as="geometry"/>
                </mxCell>
                <mxCell id="VoS2cG7jSg4z9FvmRYZC-304" value="" style="rounded=0;orthogonalLoop=1;jettySize=auto;html=1;endArrow=halfCircle;endFill=0;entryX=0.6;entryY=0.5;endSize=6;strokeWidth=1;sketch=0;entryDx=0;entryDy=0;entryPerimeter=0;" parent="1" edge="1">
                    <mxGeometry relative="1" as="geometry">
                        <mxPoint x="-410" y="840" as="sourcePoint"/>
                        <mxPoint x="365.9999999999998" y="840" as="targetPoint"/>
                    </mxGeometry>
                </mxCell>
                <mxCell id="VoS2cG7jSg4z9FvmRYZC-306" value="" style="rounded=0;orthogonalLoop=1;jettySize=auto;html=1;endArrow=none;endFill=0;sketch=0;sourcePerimeterSpacing=0;targetPerimeterSpacing=0;" parent="1" target="VoS2cG7jSg4z9FvmRYZC-303" edge="1">
                    <mxGeometry relative="1" as="geometry">
                        <mxPoint x="720" y="840" as="sourcePoint"/>
                        <mxPoint x="374.99999999992815" y="840" as="targetPoint"/>
                    </mxGeometry>
                </mxCell>
                <mxCell id="VoS2cG7jSg4z9FvmRYZC-307" value="" style="endArrow=none;html=1;rounded=0;entryX=0.25;entryY=1;entryDx=0;entryDy=0;" parent="1" target="VoS2cG7jSg4z9FvmRYZC-180" edge="1">
                    <mxGeometry width="50" height="50" relative="1" as="geometry">
                        <mxPoint x="721" y="840" as="sourcePoint"/>
                        <mxPoint x="721.1524999999999" y="832.3000000000001" as="targetPoint"/>
                    </mxGeometry>
                </mxCell>
                <mxCell id="VoS2cG7jSg4z9FvmRYZC-311" value="&lt;span style=&quot;font-size: 10px;&quot;&gt;Lecturer info&lt;/span&gt;" style="text;html=1;strokeColor=none;fillColor=none;align=center;verticalAlign=middle;whiteSpace=wrap;rounded=0;movable=1;resizable=1;rotatable=1;deletable=1;editable=1;locked=0;connectable=1;" parent="1" vertex="1">
                    <mxGeometry x="317.44999999999993" y="850" width="99.09" height="15" as="geometry"/>
                </mxCell>
                <mxCell id="VoS2cG7jSg4z9FvmRYZC-315" value="" style="rounded=0;orthogonalLoop=1;jettySize=auto;html=1;endArrow=none;endFill=0;sketch=0;sourcePerimeterSpacing=0;targetPerimeterSpacing=0;exitX=0;exitY=0.75;exitDx=0;exitDy=0;" parent="1" source="VoS2cG7jSg4z9FvmRYZC-109" target="VoS2cG7jSg4z9FvmRYZC-317" edge="1">
                    <mxGeometry relative="1" as="geometry">
                        <mxPoint x="-140" y="365" as="sourcePoint"/>
                    </mxGeometry>
                </mxCell>
                <mxCell id="VoS2cG7jSg4z9FvmRYZC-316" value="" style="rounded=0;orthogonalLoop=1;jettySize=auto;html=1;endArrow=halfCircle;endFill=0;entryX=0.5;entryY=0.5;endSize=6;strokeWidth=1;sketch=0;exitX=1;exitY=0;exitDx=0;exitDy=0;" parent="1" source="VoS2cG7jSg4z9FvmRYZC-299" target="VoS2cG7jSg4z9FvmRYZC-317" edge="1">
                    <mxGeometry relative="1" as="geometry">
                        <mxPoint x="-100" y="365" as="sourcePoint"/>
                    </mxGeometry>
                </mxCell>
                <mxCell id="VoS2cG7jSg4z9FvmRYZC-317" value="" style="ellipse;whiteSpace=wrap;html=1;align=center;aspect=fixed;resizable=0;points=[];outlineConnect=0;sketch=0;" parent="1" vertex="1">
                    <mxGeometry x="-142" y="327" width="10" height="10" as="geometry"/>
                </mxCell>
                <mxCell id="VoS2cG7jSg4z9FvmRYZC-319" value="&lt;font style=&quot;font-size: 8px;&quot;&gt;«Component»&lt;br&gt;&lt;b&gt;Reply&amp;nbsp;&lt;/b&gt;&lt;br&gt;&lt;/font&gt;" style="html=1;dropTarget=0;whiteSpace=wrap;movable=1;resizable=1;rotatable=1;deletable=1;editable=1;locked=0;connectable=1;container=0;" parent="1" vertex="1">
                    <mxGeometry x="415" y="527" width="141" height="64" as="geometry"/>
                </mxCell>
                <mxCell id="VoS2cG7jSg4z9FvmRYZC-320" value="" style="shape=module;jettyWidth=8;jettyHeight=4;container=0;" parent="1" vertex="1">
                    <mxGeometry x="539" y="530" width="13" height="20" as="geometry">
                        <mxPoint x="-17" y="3" as="offset"/>
                    </mxGeometry>
                </mxCell>
                <mxCell id="VoS2cG7jSg4z9FvmRYZC-321" value="" style="rounded=0;orthogonalLoop=1;jettySize=auto;html=1;endArrow=none;endFill=0;sketch=0;sourcePerimeterSpacing=0;targetPerimeterSpacing=0;exitX=0;exitY=0.75;exitDx=0;exitDy=0;" parent="1" target="VoS2cG7jSg4z9FvmRYZC-323" edge="1">
                    <mxGeometry relative="1" as="geometry">
                        <mxPoint x="688.1999999999998" y="468.84749999999997" as="sourcePoint"/>
                    </mxGeometry>
                </mxCell>
                <mxCell id="VoS2cG7jSg4z9FvmRYZC-322" value="" style="rounded=0;orthogonalLoop=1;jettySize=auto;html=1;endArrow=halfCircle;endFill=0;entryX=0.5;entryY=0.5;endSize=6;strokeWidth=1;sketch=0;exitX=1;exitY=0;exitDx=0;exitDy=0;" parent="1" source="VoS2cG7jSg4z9FvmRYZC-324" target="VoS2cG7jSg4z9FvmRYZC-323" edge="1">
                    <mxGeometry relative="1" as="geometry">
                        <mxPoint x="596" y="491" as="sourcePoint"/>
                    </mxGeometry>
                </mxCell>
                <mxCell id="VoS2cG7jSg4z9FvmRYZC-323" value="" style="ellipse;whiteSpace=wrap;html=1;align=center;aspect=fixed;resizable=0;points=[];outlineConnect=0;sketch=0;" parent="1" vertex="1">
                    <mxGeometry x="589" y="492" width="10" height="10" as="geometry"/>
                </mxCell>
                <mxCell id="VoS2cG7jSg4z9FvmRYZC-324" value="" style="whiteSpace=wrap;html=1;aspect=fixed;movable=1;resizable=1;rotatable=1;deletable=1;editable=1;locked=0;connectable=1;container=0;" parent="1" vertex="1">
                    <mxGeometry x="475.20000000000005" y="519" width="20.61" height="20.61" as="geometry"/>
                </mxCell>
                <mxCell id="VoS2cG7jSg4z9FvmRYZC-325" value="" style="whiteSpace=wrap;html=1;aspect=fixed;movable=1;resizable=1;rotatable=1;deletable=1;editable=1;locked=0;connectable=1;container=0;" parent="1" vertex="1">
                    <mxGeometry x="402" y="548.6999999999999" width="20.61" height="20.61" as="geometry"/>
                </mxCell>
                <mxCell id="VoS2cG7jSg4z9FvmRYZC-326" value="&lt;font style=&quot;font-size: 10px;&quot;&gt;View Reply&lt;/font&gt;" style="text;html=1;strokeColor=none;fillColor=none;align=center;verticalAlign=middle;whiteSpace=wrap;rounded=0;movable=1;resizable=1;rotatable=1;deletable=1;editable=1;locked=0;connectable=1;" parent="1" vertex="1">
                    <mxGeometry x="549.22" y="474" width="60.19" height="15" as="geometry"/>
                </mxCell>
                <mxCell id="VoS2cG7jSg4z9FvmRYZC-327" value="&lt;font style=&quot;font-size: 10px;&quot;&gt;View Profile&lt;/font&gt;" style="text;html=1;strokeColor=none;fillColor=none;align=center;verticalAlign=middle;whiteSpace=wrap;rounded=0;movable=1;resizable=1;rotatable=1;deletable=1;editable=1;locked=0;connectable=1;" parent="1" vertex="1">
                    <mxGeometry x="-200.62" y="312" width="60.19" height="15" as="geometry"/>
                </mxCell>
                <mxCell id="VoS2cG7jSg4z9FvmRYZC-328" value="&lt;font style=&quot;font-size: 10px;&quot;&gt;View Feedback&lt;/font&gt;" style="text;html=1;strokeColor=none;fillColor=none;align=center;verticalAlign=middle;whiteSpace=wrap;rounded=0;movable=1;resizable=1;rotatable=1;deletable=1;editable=1;locked=0;connectable=1;" parent="1" vertex="1">
                    <mxGeometry x="-110" y="347" width="80" height="15" as="geometry"/>
                </mxCell>
                <mxCell id="VoS2cG7jSg4z9FvmRYZC-329" value="&lt;font style=&quot;font-size: 10px;&quot;&gt;Report and Analysis&lt;/font&gt;" style="text;html=1;strokeColor=none;fillColor=none;align=center;verticalAlign=middle;whiteSpace=wrap;rounded=0;movable=1;resizable=1;rotatable=1;deletable=1;editable=1;locked=0;connectable=1;" parent="1" vertex="1">
                    <mxGeometry x="-15.230000000000004" y="347" width="104.5" height="15" as="geometry"/>
                </mxCell>
                <mxCell id="VoS2cG7jSg4z9FvmRYZC-330" value="&lt;font style=&quot;font-size: 10px;&quot;&gt;Reply&lt;/font&gt;" style="text;html=1;strokeColor=none;fillColor=none;align=center;verticalAlign=middle;whiteSpace=wrap;rounded=0;movable=1;resizable=1;rotatable=1;deletable=1;editable=1;locked=0;connectable=1;" parent="1" vertex="1">
                    <mxGeometry x="115.19" y="332" width="45.84" height="15" as="geometry"/>
                </mxCell>
                <mxCell id="VoS2cG7jSg4z9FvmRYZC-332" value="" style="endArrow=none;html=1;rounded=0;entryX=0.01;entryY=0.441;entryDx=0;entryDy=0;exitX=1;exitY=0.5;exitDx=0;exitDy=0;entryPerimeter=0;" parent="1" source="VoS2cG7jSg4z9FvmRYZC-337" target="VoS2cG7jSg4z9FvmRYZC-325" edge="1">
                    <mxGeometry width="50" height="50" relative="1" as="geometry">
                        <mxPoint x="244" y="598.7" as="sourcePoint"/>
                        <mxPoint x="294" y="548.7" as="targetPoint"/>
                    </mxGeometry>
                </mxCell>
                <mxCell id="VoS2cG7jSg4z9FvmRYZC-334" value="" style="endArrow=none;html=1;rounded=0;entryX=0;entryY=0.5;entryDx=0;entryDy=0;exitX=1;exitY=0.5;exitDx=0;exitDy=0;" parent="1" source="VoS2cG7jSg4z9FvmRYZC-341" target="VoS2cG7jSg4z9FvmRYZC-333" edge="1">
                    <mxGeometry width="50" height="50" relative="1" as="geometry">
                        <mxPoint x="202" y="558" as="sourcePoint"/>
                        <mxPoint x="351" y="559" as="targetPoint"/>
                    </mxGeometry>
                </mxCell>
                <mxCell id="VoS2cG7jSg4z9FvmRYZC-333" value="" style="whiteSpace=wrap;html=1;aspect=fixed;movable=1;resizable=1;rotatable=1;deletable=1;editable=1;locked=0;connectable=1;container=0;fontStyle=1" parent="1" vertex="1">
                    <mxGeometry x="240.94" y="547.2" width="20.61" height="20.61" as="geometry"/>
                </mxCell>
                <mxCell id="VoS2cG7jSg4z9FvmRYZC-336" value="" style="endArrow=none;html=1;rounded=0;entryX=0;entryY=0.5;entryDx=0;entryDy=0;exitX=1;exitY=0.5;exitDx=0;exitDy=0;" parent="1" source="VoS2cG7jSg4z9FvmRYZC-333" target="VoS2cG7jSg4z9FvmRYZC-335" edge="1">
                    <mxGeometry width="50" height="50" relative="1" as="geometry">
                        <mxPoint x="411" y="522" as="sourcePoint"/>
                        <mxPoint x="545" y="523" as="targetPoint"/>
                    </mxGeometry>
                </mxCell>
                <mxCell id="VoS2cG7jSg4z9FvmRYZC-335" value="" style="whiteSpace=wrap;html=1;aspect=fixed;movable=1;resizable=1;rotatable=1;deletable=1;editable=1;locked=0;connectable=1;container=0;" parent="1" vertex="1">
                    <mxGeometry x="325" y="547.1999999999999" width="20.61" height="20.61" as="geometry"/>
                </mxCell>
                <mxCell id="VoS2cG7jSg4z9FvmRYZC-338" value="" style="endArrow=none;html=1;rounded=0;entryX=0;entryY=0.5;entryDx=0;entryDy=0;exitX=1;exitY=0.5;exitDx=0;exitDy=0;" parent="1" source="VoS2cG7jSg4z9FvmRYZC-335" target="VoS2cG7jSg4z9FvmRYZC-337" edge="1">
                    <mxGeometry width="50" height="50" relative="1" as="geometry">
                        <mxPoint x="346" y="558" as="sourcePoint"/>
                        <mxPoint x="402" y="559" as="targetPoint"/>
                    </mxGeometry>
                </mxCell>
                <mxCell id="VoS2cG7jSg4z9FvmRYZC-337" value="" style="ellipse;whiteSpace=wrap;html=1;align=center;aspect=fixed;resizable=0;points=[];outlineConnect=0;sketch=0;" parent="1" vertex="1">
                    <mxGeometry x="367" y="552.5" width="10" height="10" as="geometry"/>
                </mxCell>
                <mxCell id="VoS2cG7jSg4z9FvmRYZC-342" value="" style="endArrow=none;html=1;rounded=0;entryX=0;entryY=0.5;entryDx=0;entryDy=0;exitX=1;exitY=0.5;exitDx=0;exitDy=0;" parent="1" source="VoS2cG7jSg4z9FvmRYZC-331" target="VoS2cG7jSg4z9FvmRYZC-341" edge="1">
                    <mxGeometry width="50" height="50" relative="1" as="geometry">
                        <mxPoint x="202" y="558" as="sourcePoint"/>
                        <mxPoint x="241" y="558" as="targetPoint"/>
                    </mxGeometry>
                </mxCell>
                <mxCell id="VoS2cG7jSg4z9FvmRYZC-341" value="" style="ellipse;whiteSpace=wrap;html=1;align=center;aspect=fixed;resizable=0;points=[];outlineConnect=0;sketch=0;" parent="1" vertex="1">
                    <mxGeometry x="217" y="552.5" width="10" height="10" as="geometry"/>
                </mxCell>
                <mxCell id="VoS2cG7jSg4z9FvmRYZC-353" value="" style="rounded=0;orthogonalLoop=1;jettySize=auto;html=1;endArrow=none;endFill=0;sketch=0;sourcePerimeterSpacing=0;targetPerimeterSpacing=0;exitX=1;exitY=0.25;exitDx=0;exitDy=0;" parent="1" source="VoS2cG7jSg4z9FvmRYZC-348" target="VoS2cG7jSg4z9FvmRYZC-355" edge="1">
                    <mxGeometry relative="1" as="geometry">
                        <mxPoint x="720" y="320" as="sourcePoint"/>
                    </mxGeometry>
                </mxCell>
                <mxCell id="VoS2cG7jSg4z9FvmRYZC-356" value="" style="whiteSpace=wrap;html=1;aspect=fixed;movable=1;resizable=1;rotatable=1;deletable=1;editable=1;locked=0;connectable=1;container=0;" parent="1" vertex="1">
                    <mxGeometry x="688.1999999999999" y="453.39" width="20.61" height="20.61" as="geometry"/>
                </mxCell>
                <mxCell id="VoS2cG7jSg4z9FvmRYZC-366" value="" style="rounded=0;orthogonalLoop=1;jettySize=auto;html=1;endArrow=none;endFill=0;sketch=0;sourcePerimeterSpacing=0;targetPerimeterSpacing=0;exitX=1;exitY=0.5;exitDx=0;exitDy=0;" parent="1" source="VoS2cG7jSg4z9FvmRYZC-104" target="VoS2cG7jSg4z9FvmRYZC-368" edge="1">
                    <mxGeometry relative="1" as="geometry">
                        <mxPoint x="611.2" y="184" as="sourcePoint"/>
                    </mxGeometry>
                </mxCell>
                <mxCell id="VoS2cG7jSg4z9FvmRYZC-367" value="" style="rounded=0;orthogonalLoop=1;jettySize=auto;html=1;endArrow=halfCircle;endFill=0;entryX=0.5;entryY=0.5;endSize=6;strokeWidth=1;sketch=0;exitX=0;exitY=0.5;exitDx=0;exitDy=0;" parent="1" source="VoS2cG7jSg4z9FvmRYZC-357" target="VoS2cG7jSg4z9FvmRYZC-368" edge="1">
                    <mxGeometry relative="1" as="geometry">
                        <mxPoint x="651.2" y="184" as="sourcePoint"/>
                    </mxGeometry>
                </mxCell>
                <mxCell id="VoS2cG7jSg4z9FvmRYZC-368" value="" style="ellipse;whiteSpace=wrap;html=1;align=center;aspect=fixed;resizable=0;points=[];outlineConnect=0;sketch=0;" parent="1" vertex="1">
                    <mxGeometry x="626.2" y="179" width="10" height="10" as="geometry"/>
                </mxCell>
                <mxCell id="VoS2cG7jSg4z9FvmRYZC-369" value="" style="rounded=0;orthogonalLoop=1;jettySize=auto;html=1;endArrow=none;endFill=0;sketch=0;sourcePerimeterSpacing=0;targetPerimeterSpacing=0;exitX=1;exitY=0.75;exitDx=0;exitDy=0;" parent="1" source="VoS2cG7jSg4z9FvmRYZC-104" target="VoS2cG7jSg4z9FvmRYZC-371" edge="1">
                    <mxGeometry relative="1" as="geometry">
                        <mxPoint x="611.2" y="225" as="sourcePoint"/>
                    </mxGeometry>
                </mxCell>
                <mxCell id="VoS2cG7jSg4z9FvmRYZC-370" value="" style="rounded=0;orthogonalLoop=1;jettySize=auto;html=1;endArrow=halfCircle;endFill=0;entryX=0.5;entryY=0.5;endSize=6;strokeWidth=1;sketch=0;exitX=0;exitY=0.5;exitDx=0;exitDy=0;" parent="1" source="VoS2cG7jSg4z9FvmRYZC-360" target="VoS2cG7jSg4z9FvmRYZC-371" edge="1">
                    <mxGeometry relative="1" as="geometry">
                        <mxPoint x="651.2" y="225" as="sourcePoint"/>
                    </mxGeometry>
                </mxCell>
                <mxCell id="VoS2cG7jSg4z9FvmRYZC-371" value="" style="ellipse;whiteSpace=wrap;html=1;align=center;aspect=fixed;resizable=0;points=[];outlineConnect=0;sketch=0;" parent="1" vertex="1">
                    <mxGeometry x="626.2" y="220" width="10" height="10" as="geometry"/>
                </mxCell>
                <mxCell id="VoS2cG7jSg4z9FvmRYZC-372" value="&lt;font style=&quot;font-size: 10px;&quot;&gt;View Report&lt;/font&gt;" style="text;html=1;strokeColor=none;fillColor=none;align=center;verticalAlign=middle;whiteSpace=wrap;rounded=0;movable=1;resizable=1;rotatable=1;deletable=1;editable=1;locked=0;connectable=1;" parent="1" vertex="1">
                    <mxGeometry x="601.1" y="160.81" width="60.19" height="15" as="geometry"/>
                </mxCell>
                <mxCell id="VoS2cG7jSg4z9FvmRYZC-373" value="&lt;font style=&quot;font-size: 10px;&quot;&gt;View Profile&lt;/font&gt;" style="text;html=1;strokeColor=none;fillColor=none;align=center;verticalAlign=middle;whiteSpace=wrap;rounded=0;movable=1;resizable=1;rotatable=1;deletable=1;editable=1;locked=0;connectable=1;" parent="1" vertex="1">
                    <mxGeometry x="601.1" y="237" width="60.19" height="15" as="geometry"/>
                </mxCell>
                <mxCell id="4" value="" style="ellipse;whiteSpace=wrap;html=1;align=center;aspect=fixed;resizable=0;points=[];outlineConnect=0;sketch=0;" parent="1" vertex="1">
                    <mxGeometry x="433" y="354" width="10" height="10" as="geometry"/>
                </mxCell>
                <mxCell id="VoS2cG7jSg4z9FvmRYZC-355" value="" style="ellipse;whiteSpace=wrap;html=1;align=center;aspect=fixed;resizable=0;points=[];outlineConnect=0;sketch=0;" parent="1" vertex="1">
                    <mxGeometry x="510" y="299" width="10" height="10" as="geometry"/>
                </mxCell>
                <mxCell id="VoS2cG7jSg4z9FvmRYZC-354" value="" style="rounded=0;orthogonalLoop=1;jettySize=auto;html=1;endArrow=halfCircle;endFill=0;entryX=0.5;entryY=0.5;endSize=6;strokeWidth=1;sketch=0;exitX=0;exitY=0.5;exitDx=0;exitDy=0;" parent="1" source="VoS2cG7jSg4z9FvmRYZC-361" target="VoS2cG7jSg4z9FvmRYZC-355" edge="1">
                    <mxGeometry relative="1" as="geometry">
                        <mxPoint x="950" y="190" as="sourcePoint"/>
                    </mxGeometry>
                </mxCell>
                <mxCell id="7" value="" style="rounded=0;orthogonalLoop=1;jettySize=auto;html=1;endArrow=none;endFill=0;sketch=0;sourcePerimeterSpacing=0;targetPerimeterSpacing=0;" parent="1" target="9" edge="1">
                    <mxGeometry relative="1" as="geometry">
                        <mxPoint x="1110" y="820" as="sourcePoint"/>
                    </mxGeometry>
                </mxCell>
                <mxCell id="8" value="" style="rounded=0;orthogonalLoop=1;jettySize=auto;html=1;endArrow=halfCircle;endFill=0;entryX=0.5;entryY=0.5;endSize=6;strokeWidth=1;sketch=0;" parent="1" target="9" edge="1">
                    <mxGeometry relative="1" as="geometry">
                        <mxPoint x="1110" y="280" as="sourcePoint"/>
                    </mxGeometry>
                </mxCell>
                <mxCell id="9" value="" style="ellipse;whiteSpace=wrap;html=1;align=center;aspect=fixed;resizable=0;points=[];outlineConnect=0;sketch=0;rotation=-90;container=0;" parent="1" vertex="1">
                    <mxGeometry x="1105" y="552.51" width="10" height="10" as="geometry"/>
                </mxCell>
                <mxCell id="11" value="" style="endArrow=none;html=1;" parent="1" edge="1">
                    <mxGeometry width="50" height="50" relative="1" as="geometry">
                        <mxPoint x="1040" y="280" as="sourcePoint"/>
                        <mxPoint x="1110" y="280" as="targetPoint"/>
                    </mxGeometry>
                </mxCell>
                <mxCell id="12" value="" style="endArrow=none;html=1;exitX=1;exitY=0.5;exitDx=0;exitDy=0;" parent="1" source="VoS2cG7jSg4z9FvmRYZC-179" edge="1">
                    <mxGeometry width="50" height="50" relative="1" as="geometry">
                        <mxPoint x="914.5" y="820" as="sourcePoint"/>
                        <mxPoint x="1110" y="820" as="targetPoint"/>
                    </mxGeometry>
                </mxCell>
                <mxCell id="13" value="&lt;font style=&quot;font-size: 10px;&quot;&gt;Administrator Info&lt;/font&gt;" style="text;html=1;strokeColor=none;fillColor=none;align=center;verticalAlign=middle;whiteSpace=wrap;rounded=0;movable=1;resizable=1;rotatable=1;deletable=1;editable=1;locked=0;connectable=1;" parent="1" vertex="1">
                    <mxGeometry x="1070" y="522.2" width="65.59" height="20" as="geometry"/>
                </mxCell>
                <mxCell id="VoS2cG7jSg4z9FvmRYZC-362" value="&lt;font style=&quot;font-size: 10px;&quot;&gt;Report info&lt;/font&gt;" style="text;html=1;strokeColor=none;fillColor=none;align=center;verticalAlign=middle;whiteSpace=wrap;rounded=0;movable=1;resizable=1;rotatable=1;deletable=1;editable=1;locked=0;connectable=1;" parent="1" vertex="1">
                    <mxGeometry x="460" y="276.30000000000007" width="80" height="15" as="geometry"/>
                </mxCell>
            </root>
        </mxGraphModel>
    </diagram>
</mxfile>